<?xml version="1.0" standalone="no"?>
<!DOCTYPE svg PUBLIC "-//W3C//DTD SVG 20010904//EN"
 "http://www.w3.org/TR/2001/REC-SVG-20010904/DTD/svg10.dtd">
<svg version="1.0" xmlns="http://www.w3.org/2000/svg"
 width="2848.000000pt" height="4288.000000pt" viewBox="0 0 2848.000000 4288.000000"
 preserveAspectRatio="xMidYMid meet">
<metadata>
Created by potrace 1.14, written by Peter Selinger 2001-2017
</metadata>
<g transform="translate(0.000000,4288.000000) scale(0.100000,-0.100000)"
fill="#000000" stroke="none">
<path d="M16490 29733 c0 -7 5 -13 10 -13 6 0 10 -8 10 -17 0 -15 -8 -17 -48
-15 -66 5 -129 -23 -137 -60 -4 -17 -14 -28 -28 -30 -12 -2 -28 -15 -35 -30
-7 -16 -18 -28 -23 -28 -6 0 -7 -4 -4 -10 3 -5 0 -10 -7 -10 -25 0 -68 -25
-64 -37 4 -8 -4 -9 -27 -2 -40 11 -37 12 -37 -6 0 -8 -4 -15 -10 -15 -5 0 -10
-7 -10 -16 0 -9 -9 -18 -20 -21 -11 -3 -20 -10 -20 -16 0 -6 -3 -7 -7 -4 -3 4
-12 2 -20 -4 -10 -9 -10 -15 -2 -25 9 -11 8 -14 -1 -14 -6 0 -14 9 -17 19 -3
11 -11 22 -18 25 -8 3 -12 0 -9 -7 3 -8 -5 -13 -17 -14 -12 -1 -26 -8 -30 -15
-6 -10 -9 -10 -9 -1 0 9 -7 10 -22 4 -13 -5 -22 -14 -20 -21 1 -6 -2 -9 -8 -5
-5 3 -10 13 -10 21 0 17 -12 18 -28 2 -10 -10 -15 -10 -21 0 -6 11 -10 10 -15
-3 -5 -15 -9 -15 -23 -4 -9 8 -14 9 -10 3 4 -7 -2 -14 -13 -17 -11 -3 -20 -2
-20 2 0 4 -22 7 -50 7 -27 0 -50 -3 -50 -8 0 -4 -12 -3 -26 3 -15 5 -29 7 -32
4 -3 -3 0 -5 6 -5 7 0 12 -4 12 -9 0 -5 -11 -8 -25 -7 -14 0 -25 7 -25 15 0 9
-8 11 -27 7 -16 -3 -22 -3 -15 0 24 11 11 19 -30 19 -24 0 -46 -4 -50 -10 -11
-15 -57 -13 -51 2 4 9 -5 13 -28 14 -19 0 -47 3 -63 5 -18 3 -33 0 -38 -8 -6
-9 -7 -6 -3 9 6 20 4 21 -24 13 -27 -8 -53 2 -34 13 5 2 1 1 -7 -2 -8 -3 -33
-5 -55 -6 -22 0 -43 -4 -47 -10 -5 -6 -11 -5 -17 4 -5 7 -17 11 -28 7 -12 -4
-27 1 -41 14 l-22 21 0 -21 c0 -17 -4 -19 -27 -14 -16 4 -34 12 -42 18 -12 9
-14 8 -9 -5 5 -12 -2 -15 -34 -13 -21 1 -42 4 -45 8 -10 10 -23 7 -21 -5 2 -6
-3 -14 -11 -17 -10 -3 -12 0 -8 12 7 17 -8 22 -18 6 -4 -6 -23 -8 -43 -6 -20
3 -28 3 -17 0 33 -10 44 -28 13 -20 -18 4 -28 2 -28 -5 0 -6 -6 -9 -14 -6 -8
3 -17 -1 -20 -9 -3 -8 -11 -14 -18 -14 -9 0 -9 3 2 10 24 15 6 20 -33 8 -27
-8 -34 -15 -27 -23 7 -8 3 -18 -11 -31 l-21 -19 7 34 c5 23 4 31 -4 27 -6 -4
-11 -14 -11 -22 0 -8 -7 -14 -15 -14 -8 0 -15 -7 -15 -15 0 -10 -10 -15 -30
-15 -19 0 -33 -6 -37 -16 -4 -10 -13 -14 -28 -10 -19 5 -24 1 -30 -22 -6 -25
-8 -25 -19 -9 -18 23 -26 22 -27 -5 0 -13 -3 -17 -6 -10 -7 17 -42 15 -49 -3
-4 -8 -18 -16 -33 -16 -26 -1 -26 -1 4 -9 l30 -8 -28 -1 c-16 0 -35 6 -43 14
-9 8 -20 15 -27 15 -6 0 -2 -6 8 -14 18 -13 16 -15 -28 -21 -26 -4 -50 -11
-53 -16 -3 -5 -19 -9 -35 -9 -17 0 -28 -4 -25 -8 6 -10 -30 -43 -38 -35 -2 3
-15 -2 -28 -11 -12 -9 -26 -16 -30 -16 -13 0 -9 28 5 33 8 4 7 6 -3 6 -8 1
-26 -17 -40 -39 -17 -28 -30 -39 -42 -37 -9 3 -25 -1 -35 -8 -14 -10 -21 -11
-32 -2 -12 10 -13 8 -9 -10 4 -13 2 -25 -2 -28 -5 -3 -11 3 -13 12 -4 17 -5
17 -6 1 -1 -19 -31 -26 -31 -8 0 23 -18 8 -23 -19 -5 -24 -17 -34 -57 -53 -30
-14 -50 -29 -50 -39 0 -10 -11 -20 -27 -24 -22 -5 -24 -8 -12 -17 11 -7 9 -9
-8 -5 -13 3 -23 1 -23 -4 0 -5 -7 -9 -15 -9 -8 0 -15 -8 -15 -17 0 -14 -2 -15
-9 -5 -6 10 -10 10 -21 -2 -7 -9 -16 -13 -22 -10 -5 3 -15 0 -23 -6 -8 -6 -19
-9 -25 -5 -6 4 -18 -1 -25 -11 -8 -11 -15 -14 -15 -7 0 14 -29 7 -45 -11 -5
-6 -29 -12 -52 -13 -27 -1 -51 -9 -65 -23 -13 -12 -34 -20 -53 -19 -57 3 -75
-1 -75 -17 0 -8 -4 -13 -8 -10 -5 3 -24 -4 -42 -16 -22 -13 -36 -16 -38 -9 -2
6 -10 11 -18 11 -9 0 -12 -5 -8 -12 5 -8 2 -9 -10 -5 -9 4 -14 3 -11 -2 9 -16
-12 -22 -39 -11 -21 7 -26 6 -26 -5 0 -8 -7 -15 -15 -15 -8 0 -15 -4 -15 -10
0 -5 -7 -10 -15 -10 -10 0 -15 -7 -13 -17 2 -10 -3 -18 -9 -19 -7 -1 -19 -2
-27 -3 -7 0 -16 -14 -19 -31 -5 -22 -12 -30 -27 -30 -12 0 -19 -4 -15 -10 3
-5 3 -20 -1 -34 -4 -17 -11 -23 -21 -19 -13 5 -15 0 -11 -25 4 -26 1 -32 -13
-32 -10 0 -21 -4 -24 -10 -3 -5 -2 -10 2 -10 15 0 1 -84 -18 -111 -19 -27 -35
-76 -31 -97 2 -7 -6 -26 -18 -41 -13 -19 -16 -31 -9 -33 8 -3 6 -10 -5 -21
-11 -11 -15 -24 -11 -38 4 -12 2 -24 -4 -28 -6 -4 -12 -21 -14 -39 -2 -18 -7
-35 -10 -39 -4 -3 -7 -15 -7 -25 0 -11 -4 -17 -9 -13 -8 5 -34 -28 -36 -45 0
-3 -13 -17 -28 -32 -22 -22 -27 -24 -27 -10 0 14 -2 15 -9 2 -6 -8 -8 -17 -5
-21 2 -4 -5 -5 -16 -2 -11 3 -20 1 -20 -5 0 -6 -17 -16 -37 -23 -21 -6 -42
-14 -48 -18 -5 -3 -30 -7 -55 -9 -24 -1 -47 -6 -50 -11 -8 -13 -55 -26 -130
-35 -32 -3 -93 -35 -103 -52 -4 -8 -16 -14 -26 -14 -10 0 -26 -9 -36 -20 -10
-11 -24 -20 -32 -20 -7 0 -13 -6 -13 -14 0 -8 -13 -17 -30 -21 -16 -4 -30 -12
-30 -19 0 -7 -12 -19 -27 -27 -30 -14 -79 -50 -119 -86 -14 -13 -31 -20 -40
-16 -10 4 -17 -1 -21 -15 -3 -11 -20 -28 -39 -37 -19 -9 -34 -20 -34 -25 0 -6
-11 -10 -25 -10 -14 0 -33 -8 -43 -18 -10 -10 -26 -22 -36 -25 -10 -4 -20 -16
-23 -28 -4 -16 -8 -17 -14 -7 -7 11 -9 11 -9 -1 0 -8 -6 -11 -16 -7 -11 4 -15
2 -11 -8 4 -11 1 -13 -11 -9 -15 6 -15 4 -4 -9 11 -14 9 -19 -21 -33 -21 -10
-40 -29 -48 -46 -9 -22 -14 -27 -20 -17 -7 11 -11 10 -19 -2 -5 -8 -10 -19
-10 -25 -1 -17 -37 -55 -53 -55 -8 0 -17 -11 -21 -23 -3 -13 -18 -36 -33 -51
-23 -23 -25 -29 -13 -37 12 -8 11 -9 -5 -5 -15 4 -23 -1 -32 -21 -7 -14 -10
-30 -7 -34 3 -5 -2 -9 -10 -9 -9 0 -16 -5 -16 -11 0 -5 5 -7 10 -4 6 3 10 1
10 -5 0 -6 -8 -13 -17 -17 -21 -7 -53 -38 -53 -51 0 -4 -9 -18 -21 -31 -17
-19 -19 -24 -7 -38 11 -14 10 -15 -9 -9 -18 6 -22 2 -28 -23 -7 -35 -110 -134
-162 -157 -18 -8 -36 -20 -40 -28 -9 -15 -93 -56 -116 -56 -7 0 -36 -11 -63
-25 -27 -14 -56 -25 -64 -25 -9 0 -22 -6 -29 -12 -11 -11 -12 -10 -6 2 8 13 6
13 -8 2 -9 -8 -21 -11 -27 -7 -6 4 -9 1 -8 -7 2 -7 -3 -12 -11 -10 -16 3 -81
-26 -81 -36 0 -4 -10 -9 -22 -9 -13 -1 -24 -7 -26 -13 -2 -5 -10 -10 -18 -10
-8 0 -14 -6 -14 -13 0 -7 -9 -13 -20 -14 -11 -1 -20 2 -20 8 0 5 -5 9 -11 9
-5 0 -7 -5 -4 -10 3 -6 -1 -13 -9 -16 -9 -3 -16 -10 -16 -15 0 -14 -33 -49
-46 -49 -21 0 -35 -25 -22 -38 9 -9 7 -12 -9 -12 -14 0 -23 -8 -27 -25 -4 -17
-11 -22 -22 -18 -13 5 -15 2 -10 -14 4 -12 1 -25 -9 -33 -8 -7 -12 -17 -9 -22
3 -5 -1 -17 -9 -26 -8 -9 -20 -34 -28 -54 -7 -21 -16 -38 -20 -38 -4 0 -8 -9
-8 -20 -1 -11 -1 -29 -2 -40 0 -11 -4 -20 -10 -20 -5 0 -9 -7 -9 -15 0 -8 -4
-15 -8 -15 -5 0 -14 -19 -21 -42 -7 -24 -24 -57 -37 -75 -14 -19 -22 -39 -18
-50 5 -15 4 -15 -5 -3 -9 13 -11 13 -11 -1 0 -9 -7 -19 -15 -23 -8 -3 -15 -17
-15 -30 0 -18 -4 -24 -15 -20 -9 4 -16 -3 -21 -22 -9 -34 -30 -58 -44 -49 -5
3 -10 2 -10 -3 0 -4 -10 -19 -22 -32 -13 -14 -22 -27 -20 -30 1 -3 -2 -5 -8
-5 -5 0 -17 -10 -25 -23 -9 -12 -20 -20 -25 -17 -5 3 -21 -6 -36 -20 -15 -14
-33 -24 -40 -21 -8 3 -11 -1 -8 -9 4 -10 -1 -13 -20 -9 -18 3 -34 -2 -49 -16
-12 -12 -23 -16 -25 -10 -2 5 -8 10 -13 10 -4 0 -5 -8 -2 -17 5 -13 2 -15 -11
-10 -12 5 -25 0 -37 -14 -11 -12 -19 -17 -19 -11 0 7 -4 12 -10 12 -5 0 -10
-7 -10 -15 0 -8 -9 -15 -19 -15 -11 0 -22 -4 -26 -10 -3 -5 -12 -7 -20 -3 -9
3 -15 -1 -15 -11 0 -9 -8 -16 -20 -16 -11 0 -23 -7 -26 -15 -4 -8 -10 -12 -15
-9 -5 3 -9 1 -9 -4 0 -20 -48 -64 -61 -57 -8 5 -11 5 -7 0 4 -4 -5 -24 -21
-44 -15 -20 -27 -46 -26 -58 1 -12 -3 -21 -9 -20 -6 1 -10 -6 -8 -17 2 -12 -1
-16 -9 -11 -9 6 -10 1 -5 -18 5 -21 3 -25 -8 -21 -11 4 -13 0 -9 -15 4 -17 1
-21 -18 -22 -13 0 -19 -3 -13 -5 13 -6 6 -106 -8 -115 -6 -4 -8 -11 -4 -17 3
-6 -6 -20 -20 -31 -22 -18 -24 -22 -10 -27 13 -5 14 -9 4 -21 -7 -9 -13 -23
-13 -32 -1 -9 -2 -25 -3 -37 -1 -11 -12 -26 -24 -33 -24 -12 -53 -61 -37 -61
5 0 10 -10 10 -22 1 -13 5 -5 9 17 l6 40 12 -27 c13 -31 38 -37 45 -10 3 12 7
9 17 -15 6 -18 16 -33 21 -33 4 0 6 6 3 13 -2 7 7 19 21 27 22 12 27 11 40 -6
13 -17 14 -17 15 -2 0 19 39 50 52 42 4 -3 18 4 30 15 16 16 25 18 35 9 10 -8
12 -8 8 3 -5 13 44 44 70 44 6 0 18 8 27 18 9 10 32 21 50 24 18 3 50 20 70
39 40 36 88 59 143 70 19 3 35 10 35 15 0 5 5 9 11 9 12 0 66 22 113 46 21 10
31 12 36 4 5 -7 11 -6 19 4 9 10 22 13 42 9 17 -3 29 -1 29 5 0 5 10 10 23 10
24 1 102 10 102 12 0 1 23 3 50 6 61 5 85 9 108 19 9 4 36 4 60 1 29 -4 51 -1
72 10 16 8 52 18 80 21 27 2 51 9 53 13 2 5 10 6 18 3 8 -3 14 0 14 6 0 6 8
11 18 11 10 0 23 5 30 12 9 9 12 8 13 -7 0 -11 3 -14 6 -7 2 6 9 10 14 7 5 -4
6 0 3 8 -3 10 4 17 20 21 14 3 26 10 26 15 0 5 25 23 55 40 30 17 55 36 55 41
0 6 7 10 15 10 8 0 15 4 15 10 0 5 20 23 45 40 25 17 45 28 45 25 0 -3 10 1
22 9 12 9 30 16 40 16 12 0 15 5 11 17 -5 12 -2 15 10 10 9 -3 29 0 44 8 15 8
42 15 58 16 26 0 27 2 10 9 -18 8 -18 9 -2 9 10 1 27 -4 38 -9 10 -6 38 -12
61 -14 23 -2 44 -9 46 -15 2 -6 10 -11 18 -11 8 0 14 -4 14 -10 0 -5 5 -10 11
-10 19 0 100 -41 95 -48 -3 -5 11 -16 30 -27 19 -10 34 -22 34 -27 0 -9 37
-48 45 -48 3 0 18 -11 33 -25 15 -14 32 -25 38 -25 6 0 19 -9 29 -20 10 -11
33 -22 51 -26 19 -3 34 -10 34 -15 0 -23 67 -6 110 28 15 11 20 13 41 13 5 0
7 5 4 11 -4 6 2 13 14 16 11 3 18 9 15 14 -3 5 -1 9 5 9 6 0 7 7 4 17 -4 11
-3 14 5 9 7 -4 12 -2 12 6 0 7 14 29 30 48 16 19 30 40 30 47 0 7 9 17 20 23
11 6 19 16 17 23 -1 7 3 11 10 10 7 -2 10 3 7 11 -3 7 2 16 10 19 9 4 16 14
16 22 0 9 4 14 9 11 5 -3 14 1 21 9 7 8 19 15 26 15 8 0 11 6 7 17 -5 12 -2
15 10 10 8 -3 21 1 27 8 8 10 21 13 37 9 17 -5 31 0 46 14 24 22 75 33 182 38
124 7 199 3 229 -11 16 -8 32 -12 37 -9 5 3 15 2 21 -2 13 -8 20 -10 81 -20
20 -3 37 -10 37 -15 0 -5 9 -9 19 -9 11 0 23 -9 26 -21 4 -12 12 -18 21 -15 8
3 14 1 14 -4 0 -6 6 -10 13 -10 7 0 18 -9 25 -21 7 -11 19 -18 27 -15 8 3 24
-7 37 -23 13 -15 31 -30 41 -34 9 -3 17 -13 17 -22 0 -8 7 -15 15 -15 8 0 15
-4 15 -9 0 -5 15 -14 33 -20 19 -7 40 -22 46 -35 9 -15 19 -22 31 -19 10 3 21
0 24 -6 4 -6 16 -11 27 -11 10 0 19 -7 19 -15 0 -8 7 -16 15 -16 8 -1 21 -2
28 -3 6 -1 15 -5 19 -11 5 -7 14 -6 26 1 14 9 26 8 52 -2 27 -12 35 -12 42 -2
6 10 10 10 17 -1 5 -7 13 -11 19 -7 6 3 22 2 36 -4 15 -5 38 -12 52 -14 15 -3
34 -11 43 -19 9 -8 22 -12 30 -9 9 3 11 0 6 -8 -5 -8 -4 -11 2 -7 5 3 27 1 49
-5 21 -6 33 -13 27 -15 -7 -3 -13 -9 -13 -15 0 -6 7 -8 15 -4 8 3 15 1 15 -4
0 -6 7 -10 15 -10 8 0 15 -4 15 -10 0 -5 7 -10 15 -10 8 0 15 -7 15 -15 0 -8
3 -14 8 -13 15 5 53 -24 48 -37 -5 -14 40 -35 74 -35 10 0 21 -7 24 -16 4 -9
9 -15 12 -12 2 3 21 0 42 -8 26 -9 36 -18 35 -31 -1 -10 0 -12 3 -5 7 14 44
16 44 2 0 -5 7 -10 16 -10 18 0 37 -17 48 -45 5 -13 10 -15 13 -7 8 21 18 14
72 -52 51 -63 131 -207 131 -236 0 -8 7 -28 15 -44 8 -15 13 -32 10 -36 -3 -5
-1 -11 4 -15 8 -4 7 -317 -2 -528 -1 -26 2 -47 6 -47 5 0 5 -5 1 -12 -4 -7 -9
-46 -11 -88 -2 -67 -6 -99 -20 -165 -2 -11 -5 -32 -5 -47 -1 -16 -5 -28 -9
-28 -5 0 -9 -7 -9 -15 0 -8 -3 -15 -8 -15 -7 0 -10 -31 -11 -139 0 -44 -3 -52
-16 -47 -9 3 -13 2 -10 -4 3 -6 13 -10 22 -10 12 0 13 -3 4 -13 -8 -10 -7 -18
2 -31 12 -16 14 -16 40 4 15 12 34 19 42 16 9 -3 35 17 68 54 30 33 59 60 65
60 7 0 12 8 12 18 0 9 11 26 25 36 14 10 25 23 25 28 0 5 18 28 40 50 22 23
40 46 40 50 0 4 7 8 16 8 11 0 14 6 9 20 -5 14 -2 20 9 20 9 0 16 7 16 15 0 9
7 18 15 21 8 3 19 20 25 38 6 18 22 39 35 46 14 7 25 17 25 21 0 4 12 4 28 0
15 -4 32 -6 38 -4 6 2 17 -3 24 -12 7 -8 19 -15 26 -15 8 0 14 -7 14 -15 0 -9
9 -15 25 -15 14 0 25 -4 25 -10 0 -5 9 -10 20 -10 13 0 18 -5 14 -15 -4 -10 0
-15 15 -15 12 0 21 -4 21 -8 0 -13 111 -66 138 -67 13 0 31 -10 40 -22 11 -13
28 -21 46 -21 15 0 32 -6 37 -13 5 -8 9 -10 9 -6 0 5 13 -1 29 -12 16 -12 34
-21 40 -21 6 0 11 -8 12 -17 0 -13 2 -14 6 -4 6 15 71 -109 72 -137 2 -60 7
-92 13 -92 5 0 8 -22 8 -50 0 -27 -4 -50 -10 -50 -5 0 -8 -14 -6 -32 2 -18 -3
-57 -11 -88 -7 -30 -15 -64 -18 -74 -2 -11 -10 -23 -17 -27 -6 -4 -12 -16 -13
-26 -5 -41 -45 -173 -65 -214 -24 -46 -40 -110 -42 -169 -3 -53 12 -150 23
-150 6 0 7 -5 4 -10 -8 -13 25 -90 39 -91 6 0 2 -4 -9 -9 -16 -7 -12 -9 20
-11 24 -1 31 -3 17 -6 -19 -4 -20 -6 -7 -19 8 -9 19 -13 24 -9 5 3 12 1 15 -4
3 -5 -3 -11 -14 -14 -11 -3 -20 -13 -20 -23 0 -17 1 -17 13 1 10 12 16 14 21
7 4 -7 4 -16 1 -22 -3 -6 1 -7 9 -4 19 7 22 -12 4 -19 -8 -4 -4 -8 10 -12 12
-4 22 -11 22 -15 0 -12 -49 -42 -59 -35 -5 2 -12 -6 -15 -20 -4 -14 -12 -25
-19 -25 -14 0 -47 -35 -47 -50 0 -5 -12 -12 -27 -16 -55 -12 -63 -16 -63 -30
0 -8 -3 -13 -7 -12 -5 0 -15 -1 -23 -4 -8 -3 -41 -13 -72 -23 -32 -10 -58 -22
-58 -28 0 -5 -6 -7 -14 -4 -8 3 -17 -1 -20 -8 -3 -8 -12 -12 -20 -9 -9 3 -20
-3 -28 -15 -7 -12 -18 -21 -25 -21 -6 0 -14 -6 -16 -12 -4 -10 -8 -9 -16 2 -7
10 -11 11 -11 3 0 -7 -11 -18 -24 -25 -14 -7 -26 -17 -27 -23 -4 -22 -12 -35
-19 -30 -4 3 -10 -5 -13 -16 -3 -12 -10 -18 -16 -15 -6 4 -13 -9 -17 -34 -4
-22 -11 -40 -16 -40 -5 0 -8 -6 -7 -12 3 -17 -12 -51 -25 -60 -6 -4 -5 -12 3
-21 10 -13 9 -17 -6 -26 -17 -9 -17 -10 0 -16 9 -4 17 -17 17 -29 0 -11 12
-32 25 -45 14 -13 25 -18 25 -12 0 6 5 11 10 11 6 0 10 -8 10 -17 0 -15 2 -16
10 -3 6 10 10 11 10 3 0 -16 61 -33 77 -21 7 5 14 5 17 -1 4 -6 20 -8 36 -4
18 3 30 1 30 -5 0 -5 15 -13 33 -16 17 -3 43 -9 57 -12 14 -3 36 -7 50 -9 14
-2 41 -8 60 -14 19 -7 57 -14 84 -16 27 -3 64 -10 83 -17 27 -10 38 -10 53 0
14 9 20 9 20 1 0 -8 4 -8 14 0 9 8 15 8 18 2 2 -7 20 -6 51 2 27 7 45 16 41
20 -4 4 0 8 9 8 9 1 22 3 27 4 6 1 28 3 49 4 22 0 46 8 55 16 8 9 17 15 18 14
2 -1 35 4 73 10 63 11 210 25 260 24 50 0 126 -14 157 -27 52 -23 72 -29 85
-27 6 1 13 -9 15 -21 2 -17 9 -22 23 -20 17 2 17 1 5 -8 -13 -8 -13 -11 -1
-19 8 -5 10 -14 5 -22 -4 -7 -7 -26 -6 -41 1 -15 -2 -28 -7 -28 -5 0 -6 -15
-1 -34 4 -19 5 -37 2 -40 -3 -4 0 -6 7 -6 7 0 9 -5 4 -12 -4 -7 -8 -34 -9 -60
-2 -38 -8 -52 -31 -72 -19 -17 -23 -26 -13 -26 13 -1 13 -2 -1 -13 -9 -7 -19
-23 -23 -35 -6 -16 -13 -22 -24 -17 -13 5 -12 2 3 -15 16 -18 17 -20 1 -20 -9
0 -16 -6 -14 -13 2 -6 -8 -27 -21 -45 -13 -18 -21 -36 -17 -39 3 -3 -1 -18 -9
-33 -19 -37 -16 -120 4 -120 11 0 10 -3 -4 -13 -14 -11 -15 -16 -5 -22 9 -5
15 -4 18 5 3 7 10 -1 18 -19 12 -29 34 -43 34 -21 0 6 5 10 11 10 8 0 8 -5 -1
-15 -9 -11 -10 -18 -1 -28 6 -8 9 -16 6 -19 -3 -2 7 -10 23 -17 64 -30 77 -39
74 -50 -2 -9 8 -11 33 -7 25 4 34 2 32 -7 -1 -6 6 -11 16 -9 13 2 17 -4 17
-26 0 -16 11 -41 24 -57 14 -16 23 -32 20 -37 -3 -4 0 -9 5 -9 18 -2 25 -5 54
-19 18 -9 31 -10 35 -4 4 5 16 10 27 9 11 0 23 4 27 9 11 15 38 15 38 0 0 -8
7 -14 15 -14 14 0 20 -17 16 -47 -1 -7 3 -13 9 -13 6 0 16 -11 22 -25 6 -14
17 -25 24 -25 7 0 17 -7 21 -15 6 -9 26 -15 58 -16 28 -1 53 -7 57 -13 5 -8 8
-7 8 2 0 8 8 10 24 6 29 -7 66 11 66 31 0 8 6 15 14 15 8 0 17 8 21 18 7 16 8
15 15 -3 7 -17 9 -17 9 -2 1 9 9 17 19 17 22 1 52 23 52 40 0 7 3 10 6 7 10
-10 64 25 64 41 0 8 6 12 15 8 8 -3 16 -1 16 4 1 6 3 15 4 20 1 6 3 20 4 33 2
21 3 21 11 2 6 -17 9 -14 15 18 4 20 13 37 19 37 10 0 17 26 19 83 1 9 4 17 8
17 3 0 5 11 4 24 -2 19 1 23 13 19 10 -4 13 -2 8 5 -8 13 28 52 49 52 9 0 12
6 9 15 -4 8 -1 15 5 15 6 0 37 26 69 58 48 50 64 60 103 66 26 4 54 13 64 20
15 11 23 11 45 -1 21 -10 35 -11 55 -3 32 12 45 13 27 1 -10 -6 -10 -10 3 -21
12 -10 15 -10 15 4 0 18 15 21 26 5 3 -6 16 -8 29 -5 13 3 27 0 34 -8 7 -8 47
-16 114 -20 165 -11 279 -29 304 -48 7 -5 13 -4 15 3 3 8 14 4 32 -12 15 -13
33 -24 39 -24 40 -2 88 -20 110 -41 15 -14 27 -21 27 -16 0 4 16 6 35 4 28 -3
35 -9 35 -26 1 -21 1 -21 16 -1 12 16 17 17 23 6 5 -7 20 -14 35 -14 15 -1 26
-8 26 -16 0 -8 7 -11 20 -8 24 6 38 -12 19 -25 -10 -6 -7 -8 11 -6 16 2 31 -5
43 -19 10 -13 25 -23 32 -23 7 0 16 -8 18 -17 3 -13 5 -11 6 6 l1 23 18 -22
c18 -23 118 -63 133 -54 5 3 9 0 9 -5 0 -6 8 -11 18 -11 10 0 23 -5 29 -11 18
-18 82 -18 86 0 3 11 7 8 15 -11 6 -16 15 -28 18 -28 4 0 4 3 1 7 -11 10 44
34 57 24 17 -14 86 -2 130 22 45 25 51 30 119 92 26 25 52 45 57 45 6 0 10 11
10 24 0 13 7 26 15 30 8 3 12 12 9 21 -3 8 -1 15 4 15 11 0 28 38 24 53 -1 5
7 5 19 2 15 -5 19 -4 15 4 -4 6 -4 11 1 11 10 0 33 49 33 72 0 12 5 15 16 11
12 -4 14 0 8 21 -4 18 -2 27 9 32 14 5 34 58 29 77 -1 4 2 7 8 7 5 0 10 18 10
39 0 22 4 41 10 43 5 2 11 28 13 59 3 31 8 62 12 69 5 9 4 11 -4 6 -8 -6 -10
-1 -5 18 3 14 1 39 -4 55 -7 21 -7 31 0 33 8 3 7 11 -1 26 -7 12 -9 27 -6 32
3 6 3 10 -2 10 -4 0 -9 12 -10 28 0 15 -4 56 -8 92 -4 36 -7 78 -6 95 0 16 -3
32 -7 35 -4 3 -16 41 -27 85 -10 44 -25 89 -32 100 -7 11 -13 27 -13 36 0 9
-7 22 -15 29 -9 7 -14 19 -11 27 3 7 2 13 -2 13 -5 0 -13 15 -20 33 -7 18 -20
42 -31 53 -10 11 -26 36 -35 56 -9 19 -28 41 -41 48 -14 7 -25 17 -25 22 0 4
-7 8 -16 8 -8 0 -13 4 -10 9 8 13 -21 34 -38 28 -10 -4 -13 -1 -10 7 6 15 -83
49 -92 35 -3 -5 -16 -6 -30 -3 -15 4 -24 2 -24 -6 0 -7 -7 -10 -15 -7 -8 4
-17 2 -21 -4 -3 -5 -14 -7 -24 -4 -13 4 -19 -1 -24 -20 -4 -14 -11 -23 -16
-20 -6 3 -10 1 -10 -6 0 -6 -8 -9 -20 -6 -11 3 -22 1 -25 -4 -3 -4 -13 -5 -21
-2 -13 5 -13 7 -2 14 9 6 2 9 -19 9 -26 0 -33 4 -33 20 0 15 -7 20 -27 20 -23
0 -25 2 -13 11 11 8 12 12 3 16 -7 2 -13 11 -13 18 0 7 -7 16 -16 19 -9 4 -14
13 -10 21 3 8 1 15 -4 15 -6 0 -10 8 -10 18 0 10 -3 22 -7 26 -5 4 -9 12 -9
17 -1 5 -2 14 -3 19 0 6 -8 10 -16 10 -8 0 -15 5 -15 10 0 6 5 10 12 10 6 0 4
6 -6 13 -18 13 -18 14 -1 21 17 6 17 7 -1 21 -10 8 -15 15 -11 15 4 0 3 8 -2
18 -8 15 -16 74 -25 187 0 11 -5 26 -10 34 -6 9 -5 12 0 8 6 -3 10 18 10 49 1
31 6 60 13 67 6 6 11 24 11 39 0 18 5 28 15 28 8 0 15 5 15 10 0 6 6 10 14 10
8 0 23 10 33 23 26 33 44 43 37 20 -5 -17 -5 -17 6 0 6 9 15 15 21 12 5 -4 9
1 9 9 0 9 6 17 13 17 45 4 84 9 99 13 10 2 37 -1 60 -6 24 -6 49 -11 55 -11 7
0 11 -3 8 -6 -3 -2 13 -13 35 -23 22 -10 40 -23 40 -29 0 -6 5 -7 10 -4 13 8
101 -54 134 -93 35 -43 75 -80 80 -75 3 4 6 1 6 -6 0 -15 50 -60 68 -61 6 0
12 -4 12 -10 0 -5 7 -10 15 -10 8 0 15 -4 15 -10 0 -15 82 -11 104 5 10 8 23
12 27 9 5 -3 9 2 9 11 0 11 5 15 15 11 10 -3 15 1 15 13 0 10 9 26 21 37 14
12 18 25 14 41 -4 16 -1 22 7 21 7 -2 13 4 13 12 0 8 4 18 9 22 5 3 11 15 12
25 6 39 48 148 60 156 8 4 14 17 14 27 0 11 5 20 10 20 6 0 10 7 10 15 0 8 8
23 18 33 9 9 26 36 36 60 10 23 23 42 28 42 4 0 8 7 8 15 0 8 5 15 10 15 6 0
10 8 10 18 0 11 9 27 20 37 11 10 20 24 20 30 0 7 7 16 16 19 8 3 13 10 9 15
-3 5 -1 12 5 16 5 3 10 15 10 26 0 10 6 19 14 19 12 0 31 52 27 73 -1 5 7 20
18 33 11 14 17 32 14 41 -4 11 -2 14 5 9 8 -5 12 1 12 17 0 14 6 27 13 30 7 3
24 30 37 61 14 31 29 56 35 56 5 0 21 19 35 41 13 22 46 62 72 89 25 26 44 51
41 54 -4 3 1 6 10 6 10 0 17 7 17 15 0 8 5 15 10 15 6 0 10 5 10 12 0 6 17 28
38 48 20 21 45 48 55 59 10 12 22 19 27 16 6 -3 10 0 10 7 0 20 52 118 63 118
5 0 6 11 3 25 -4 14 -2 25 4 25 5 0 10 7 10 15 0 8 4 15 10 15 10 0 26 47 22
68 -2 6 5 12 14 12 14 0 15 8 9 65 -4 44 -3 65 4 65 6 0 11 4 11 10 0 5 -7 7
-15 4 -12 -5 -15 4 -14 47 1 42 3 49 9 29 8 -24 8 -23 9 8 1 26 -3 32 -19 32
-11 0 -20 5 -20 10 0 6 6 10 14 10 7 0 16 9 19 20 4 16 0 20 -21 21 -23 2 -24
2 -5 6 24 5 21 33 -3 33 -8 0 -11 6 -8 15 4 9 0 15 -10 15 -10 0 -16 9 -16 25
0 18 -4 23 -15 19 -8 -4 -15 -2 -15 4 0 6 6 13 13 15 6 3 1 6 -12 6 -24 1 -24
1 -5 16 19 14 19 14 -1 15 -17 0 -17 2 -5 10 12 8 10 10 -9 10 -21 0 -23 4
-18 29 5 24 2 30 -16 36 -13 4 -17 8 -9 12 6 2 12 14 12 24 0 11 -4 17 -10 14
-14 -9 -12 19 3 34 10 10 6 11 -17 5 -26 -6 -28 -5 -21 16 6 18 2 27 -16 41
l-24 19 24 0 c24 0 24 0 5 15 -16 13 -17 16 -4 25 12 8 11 10 -6 10 -12 0 -24
6 -27 14 -3 8 1 13 11 12 10 -1 18 8 20 22 2 12 -2 22 -8 22 -8 0 -10 9 -6 25
5 20 3 23 -11 19 -15 -5 -15 -3 2 11 11 9 19 21 18 26 -2 5 2 8 8 6 6 -1 13 6
14 16 2 9 -1 17 -6 17 -5 0 -2 11 6 24 15 22 21 47 24 99 0 10 6 15 11 12 14
-9 12 18 -2 34 -10 11 -10 13 0 7 18 -10 15 5 -8 39 l-20 30 22 5 c18 5 24 16
31 55 4 28 12 54 18 60 5 5 9 18 9 30 1 20 1 20 15 1 14 -18 15 -19 15 -2 0
12 5 16 14 13 15 -6 33 29 22 40 -3 4 -6 2 -6 -4 0 -5 -7 -10 -15 -10 -8 0
-15 6 -15 14 0 7 3 12 8 11 4 -1 17 3 30 10 18 10 22 10 22 0 0 -8 5 -6 11 5
6 9 15 15 21 11 6 -4 6 2 -2 15 -6 12 -15 19 -20 16 -5 -3 -11 -1 -15 5 -8 13
18 13 32 -1 11 -11 50 4 65 26 11 15 0 19 -17 5 -11 -9 -15 -9 -15 -1 0 7 -10
11 -22 9 -11 -2 -23 3 -26 11 -4 11 2 13 27 8 37 -8 52 13 33 44 -16 25 -15
32 4 25 12 -5 14 -1 8 17 -4 12 -12 30 -19 40 -7 10 -11 27 -8 38 3 10 0 19
-6 19 -6 0 -11 -6 -11 -12 0 -13 -30 39 -33 57 -1 6 -11 12 -22 15 -28 8 -32
40 -6 47 27 7 27 22 -1 32 -17 6 -26 4 -35 -8 -11 -14 -12 -13 -13 7 0 12 -4
22 -10 22 -5 0 -7 6 -4 14 3 8 -4 16 -20 20 -21 5 -26 13 -26 37 0 29 -1 30
-22 15 -33 -23 -37 -20 -32 22 2 20 2 31 -2 25 -7 -15 -31 -17 -36 -4 -5 12
-48 24 -48 13 0 -5 9 -12 20 -15 11 -3 20 -11 20 -19 0 -11 -2 -10 -9 1 -5 7
-14 11 -19 7 -13 -8 -31 24 -24 43 3 10 0 12 -12 8 -12 -5 -17 -2 -15 11 4 41
-1 47 -20 25 -11 -13 -25 -23 -32 -23 -10 0 -10 3 -1 12 18 18 15 28 -9 28
-12 0 -23 8 -26 19 -3 12 -11 17 -19 14 -8 -3 -14 1 -14 10 0 8 -7 17 -15 21
-8 3 -15 13 -15 22 0 13 -4 11 -19 -7 -17 -21 -19 -22 -18 -5 1 10 -4 21 -11
23 -8 3 -10 -1 -5 -14 4 -10 -10 0 -30 21 -38 40 -43 64 -7 31 17 -16 20 -16
15 -3 -9 22 -49 48 -74 48 -10 0 -22 7 -25 16 -9 24 -7 31 4 14 8 -13 10 -12
10 3 0 14 -5 17 -20 12 -16 -5 -20 -2 -20 15 0 12 -13 39 -28 59 -15 20 -34
48 -41 64 -8 15 -18 27 -23 27 -4 0 -14 15 -22 34 -8 18 -23 40 -35 48 -11 8
-18 17 -15 21 7 6 -25 79 -39 88 -5 4 -9 18 -9 33 0 14 -6 26 -13 26 -7 0 -15
9 -18 20 -3 11 -13 20 -22 20 -14 0 -15 3 -5 15 8 9 9 15 2 15 -6 0 -14 20
-18 45 -3 25 -10 48 -15 51 -5 3 -6 10 -3 16 4 6 -1 8 -13 4 -16 -5 -19 -2
-17 23 1 22 -5 34 -22 46 -13 8 -24 22 -24 29 0 8 -17 30 -37 50 -31 30 -34
36 -18 36 15 0 11 5 -12 16 -18 9 -33 23 -33 31 0 7 -7 16 -15 19 -8 4 -15 15
-15 26 0 10 -5 16 -10 13 -6 -3 -13 0 -16 9 -3 8 -19 18 -36 21 -22 5 -27 10
-19 18 6 6 11 18 10 27 0 9 -2 10 -6 3 -5 -14 -39 1 -58 25 -6 7 -22 18 -35
25 -14 7 -25 19 -25 27 0 9 -11 16 -27 18 -16 2 -30 11 -33 22 -4 13 -12 17
-22 13 -13 -5 -15 -2 -10 11 6 14 3 16 -13 11 -14 -4 -20 -2 -20 9 0 9 -6 13
-15 10 -8 -3 -30 4 -50 16 -21 13 -43 19 -57 16 -13 -3 -17 -3 -10 0 6 3 9 10
6 16 -4 6 2 8 17 3 22 -6 22 -5 -4 13 -16 11 -43 19 -64 18 -28 -1 -43 6 -65
27 -15 16 -26 33 -22 38 3 5 -2 9 -10 9 -8 0 -19 8 -25 17 -7 14 -12 15 -24 5
-11 -10 -20 -8 -41 9 -15 12 -25 24 -22 26 3 3 12 -2 21 -11 18 -17 35 -21 35
-8 0 5 -16 17 -35 28 -19 10 -35 22 -35 26 0 5 -21 8 -47 8 l-48 1 30 14 30
15 -32 -3 c-18 -2 -30 0 -27 5 3 4 0 8 -6 8 -7 0 -9 8 -5 21 5 16 3 20 -12 18
-39 -5 -80 25 -93 69 -7 24 -8 25 -9 5 -1 -31 -21 -29 -21 2 0 26 -14 33 -26
14 -4 -7 -18 2 -37 23 -18 19 -38 32 -49 30 -13 -2 -16 1 -12 13 5 13 2 15
-20 9 -24 -6 -38 8 -18 19 4 2 2 2 -5 1 -12 -3 -74 17 -83 26 -11 13 -67 49
-79 52 -7 2 -29 18 -49 36 -29 27 -37 30 -50 20 -13 -11 -15 -10 -10 3 8 20
-37 76 -45 57 -4 -10 -8 -10 -16 2 -6 9 -7 16 -1 18 25 9 6 22 -32 23 -37 1
-39 2 -18 9 14 4 19 8 12 9 -7 1 -10 6 -7 11 3 6 2 10 -4 10 -5 0 -12 -6 -14
-12 -3 -7 -6 -4 -6 7 -1 17 -3 18 -12 5 -8 -12 -9 -11 -5 5 4 15 -4 29 -34 55
-22 19 -40 42 -40 51 0 9 -7 19 -15 23 -8 3 -15 15 -15 26 0 12 -9 30 -20 42
-11 12 -20 29 -20 37 0 9 -9 22 -20 29 -12 7 -18 17 -15 22 3 6 1 10 -6 10 -8
0 -8 4 1 15 10 12 8 16 -10 23 -12 4 -21 11 -21 15 2 19 0 27 -6 25 -5 -2 -9
2 -11 7 -2 6 -15 25 -28 43 -14 17 -22 37 -19 42 3 6 -1 10 -9 10 -18 0 -40
36 -31 50 3 5 -3 15 -15 22 -11 7 -20 21 -20 30 0 10 -4 18 -10 18 -5 0 -13
15 -18 33 -5 20 -15 32 -24 31 -10 -1 -18 10 -22 27 -3 19 -12 29 -23 29 -15
0 -15 2 2 14 19 14 19 15 -7 27 -15 6 -25 15 -23 19 8 12 -23 32 -36 24 -9 -5
-10 -2 -6 10 4 10 1 23 -6 30 -29 28 -78 57 -87 51 -5 -3 -10 -2 -10 4 0 5 5
11 12 13 8 3 6 13 -9 31 -18 23 -22 25 -33 12 -19 -23 -32 -18 -19 7 9 18 9
20 -4 15 -9 -3 -28 5 -44 19 -17 14 -35 22 -46 18 -9 -3 -17 -2 -16 3 4 25 -4
33 -36 33 -29 0 -37 5 -45 25 -11 28 -33 35 -23 8 5 -14 0 -12 -20 6 -18 16
-27 20 -27 11 0 -9 -4 -8 -13 5 -8 10 -19 15 -24 12 -6 -4 -14 0 -17 9 -3 8
-11 14 -18 12 -17 -3 -58 24 -58 38 0 6 -12 17 -27 25 -16 7 -56 40 -91 71
-34 32 -70 58 -78 58 -8 0 -13 4 -10 9 3 5 -8 11 -25 15 -22 4 -30 10 -25 21
3 9 0 15 -9 15 -7 0 -15 -8 -17 -17 -3 -16 -5 -16 -23 3 -11 11 -30 33 -43 48
-12 15 -27 24 -33 21 -5 -4 -18 4 -29 17 -11 13 -19 17 -20 11z"/>
<path d="M7022 11239 c-12 -5 -33 -19 -45 -31 -29 -30 -83 -68 -97 -68 -5 0
-20 -9 -32 -20 -13 -11 -31 -27 -40 -35 -70 -60 69 -94 248 -60 44 8 112 14
152 13 40 0 75 2 78 5 3 3 -11 15 -33 26 -21 11 -32 20 -25 21 17 0 15 20 -3
20 -10 0 -13 9 -11 34 2 18 6 38 10 45 5 7 -4 11 -26 11 -19 0 -43 7 -54 15
-10 8 -29 15 -42 15 -13 0 -31 4 -40 9 -10 5 -27 5 -40 0z"/>
<path d="M17796 11108 c-7 -10 -16 -15 -19 -11 -4 3 -7 -6 -7 -20 0 -15 5 -27
10 -27 6 0 10 -6 10 -13 0 -19 92 -102 136 -123 21 -10 41 -20 44 -23 21 -24
72 -50 86 -44 10 4 22 0 30 -11 16 -23 82 -14 114 14 20 17 21 21 7 34 -8 9
-21 29 -29 46 -7 16 -16 30 -20 30 -4 0 -6 30 -4 67 2 41 -1 71 -8 78 -18 17
-90 12 -94 -7 -4 -18 -33 -14 -72 11 -36 24 -167 23 -184 -1z"/>
<path d="M6763 10943 c-29 -3 -40 -8 -37 -17 3 -7 -6 -18 -20 -25 -14 -8 -22
-19 -19 -27 3 -8 1 -14 -5 -14 -6 0 -12 5 -14 12 -3 7 -12 4 -27 -11 -12 -12
-29 -20 -37 -17 -19 7 -18 1 3 -20 16 -16 16 -16 -5 -10 -16 6 -22 3 -22 -8 0
-9 -7 -16 -15 -16 -8 0 -15 -4 -15 -9 0 -20 36 -70 52 -75 14 -3 18 -14 18
-45 0 -23 5 -41 10 -41 6 0 10 -6 10 -14 0 -14 44 -27 89 -26 14 0 34 -10 45
-22 12 -13 21 -17 24 -10 2 7 8 12 14 12 7 0 7 -4 1 -12 -6 -7 -13 -21 -16
-30 -5 -13 -2 -15 11 -11 15 6 15 5 3 -10 -7 -9 -11 -24 -7 -32 3 -9 2 -13 -3
-10 -16 9 -22 -12 -7 -25 8 -6 13 -20 11 -31 -2 -12 4 -24 16 -32 10 -6 19
-17 19 -24 0 -6 6 -13 13 -16 9 -3 9 -7 -1 -20 -12 -14 -11 -16 8 -12 19 4 21
1 15 -27 -4 -17 -3 -28 1 -25 5 3 9 -8 9 -23 0 -15 -3 -26 -7 -24 -9 6 -17
-25 -14 -56 1 -14 -4 -34 -11 -45 -7 -11 -13 -34 -13 -52 0 -18 -5 -44 -12
-59 -10 -21 -10 -28 2 -38 21 -16 23 -136 2 -136 -11 0 -12 -3 -3 -14 9 -10 6
-19 -13 -37 -18 -17 -23 -31 -19 -46 4 -17 1 -23 -11 -23 -9 0 -17 -8 -18 -17
-1 -10 -3 -34 -5 -53 -2 -19 -4 -50 -4 -67 0 -18 -4 -33 -9 -33 -5 0 -7 -7 -4
-15 4 -8 2 -15 -2 -15 -5 0 -15 -14 -22 -30 -8 -17 -18 -28 -23 -24 -5 3 -9
-2 -9 -10 0 -9 -4 -16 -10 -16 -5 0 -10 -9 -10 -19 0 -11 -5 -21 -10 -23 -6
-2 -12 -17 -13 -33 -1 -17 -6 -33 -12 -37 -5 -4 -10 -18 -11 -30 -2 -33 -14
-60 -40 -84 -31 -30 -48 -64 -32 -64 7 0 -4 -10 -24 -22 -21 -12 -38 -27 -38
-34 0 -6 -14 -18 -31 -27 -17 -8 -39 -27 -50 -43 -10 -16 -19 -23 -19 -16 0 6
-5 12 -11 12 -5 0 -7 -4 -4 -10 7 -11 -24 -75 -32 -67 -2 3 1 16 7 29 11 21
10 21 -14 -4 -14 -15 -26 -30 -26 -32 0 -13 -36 -46 -49 -46 -8 0 -11 -3 -8
-6 7 -8 -31 -44 -45 -44 -5 0 -7 -4 -4 -9 3 -5 -1 -11 -9 -15 -8 -3 -12 -12
-9 -20 4 -11 0 -13 -17 -9 -18 5 -21 3 -17 -14 4 -15 0 -19 -16 -19 -17 1 -20
-4 -18 -29 4 -27 3 -28 -14 -15 -16 14 -17 13 -11 -15 3 -16 4 -25 1 -19 -7
17 -44 4 -44 -15 0 -17 -43 -65 -51 -57 -2 2 -15 -11 -29 -30 -14 -18 -31 -34
-37 -34 -7 0 -13 -4 -13 -10 0 -5 -8 -19 -17 -31 -54 -66 -81 -87 -118 -94
-22 -5 -42 -9 -45 -10 -3 0 -32 -16 -65 -35 -33 -19 -68 -36 -79 -37 -11 -2
-23 -8 -26 -13 -3 -5 -17 -11 -30 -13 -43 -8 -110 -32 -110 -38 0 -7 -75 -54
-75 -48 -1 2 -21 -12 -45 -31 -30 -24 -55 -35 -80 -36 -75 -2 -159 -17 -154
-26 7 -10 -191 -2 -208 8 -5 3 -20 -2 -34 -11 -14 -9 -31 -14 -37 -12 -7 2
-31 -9 -54 -24 -23 -16 -53 -29 -67 -29 -14 0 -26 -4 -26 -9 0 -4 -12 -6 -26
-3 -14 2 -29 0 -33 -5 -11 -16 -102 -75 -108 -69 -3 3 -12 -1 -20 -9 -8 -8
-23 -15 -34 -15 -11 0 -22 -7 -25 -15 -4 -8 -12 -15 -20 -15 -8 0 -14 -4 -14
-10 0 -5 -7 -10 -15 -10 -8 0 -25 -10 -36 -21 -17 -17 -23 -19 -30 -8 -6 10
-9 8 -9 -8 0 -16 -6 -23 -20 -23 -11 0 -20 -4 -20 -10 0 -5 -3 -9 -7 -8 -12 2
-47 -14 -58 -28 -12 -14 -82 -38 -107 -36 -9 0 -16 -5 -14 -11 1 -7 1 -9 -1
-4 -3 4 -10 7 -17 7 -7 0 -28 7 -47 16 -19 9 -54 25 -79 36 -25 11 -53 24 -62
29 -11 6 -18 5 -18 -1 0 -5 -10 -10 -23 -10 -13 0 -28 -5 -35 -12 -6 -6 -20
-13 -29 -14 -10 -1 -46 -5 -80 -9 -35 -5 -63 -11 -63 -14 0 -3 -19 -6 -43 -6
-92 0 -159 -29 -150 -64 6 -25 -17 -38 -29 -17 -7 13 -17 16 -39 11 -18 -4
-29 -3 -29 4 0 6 6 11 13 11 8 0 7 4 -3 10 -20 13 -33 13 -25 0 3 -5 -1 -10
-9 -10 -9 0 -16 5 -16 10 0 6 -11 15 -25 20 -14 5 -25 17 -25 25 0 12 -6 15
-20 10 -13 -4 -22 -1 -25 7 -3 8 -15 15 -27 15 -12 1 -37 10 -55 20 -32 17
-34 21 -30 61 3 33 1 42 -10 38 -8 -4 -13 3 -13 18 0 13 -16 53 -35 90 -19 36
-32 66 -29 66 3 0 -3 12 -13 28 -11 15 -30 55 -43 90 -14 34 -27 62 -30 62 -4
0 -20 28 -36 63 -16 34 -32 64 -36 65 -5 2 -8 10 -8 18 0 8 -5 14 -11 14 -5 0
-7 5 -4 10 3 6 1 10 -4 10 -6 0 -11 6 -11 13 0 8 -11 27 -25 43 -14 16 -28 38
-31 48 -10 30 -41 59 -49 47 -3 -6 -16 -11 -28 -10 -12 0 -17 3 -10 5 11 5 3
15 -74 99 -12 14 -23 32 -25 42 -2 11 -12 18 -25 17 -15 -1 -20 3 -16 13 3 8
-4 21 -16 29 -11 8 -21 21 -21 29 0 7 -7 21 -16 29 -8 9 -12 20 -9 26 3 5 -1
10 -9 10 -9 0 -16 9 -16 21 0 11 -4 18 -9 14 -6 -3 -15 4 -21 15 -6 11 -16 20
-23 20 -11 0 -32 18 -78 68 -9 9 -22 27 -28 40 -7 12 -16 20 -21 17 -6 -3 -7
1 -4 9 3 9 1 16 -5 16 -6 0 -10 10 -8 23 1 17 -3 22 -19 21 -14 0 -20 4 -17
12 3 7 -5 19 -16 26 -12 7 -21 18 -21 25 0 16 -50 66 -50 50 -1 -7 -5 -6 -13
4 -13 17 -22 18 -101 19 -27 0 -55 5 -63 11 -7 6 -24 8 -38 5 -17 -4 -27 -2
-31 8 -3 7 -13 12 -23 9 -12 -3 -20 2 -24 16 -4 15 -10 19 -23 14 -12 -4 -15
-3 -10 5 4 8 -9 31 -33 59 -26 29 -41 56 -41 72 0 33 -27 74 -43 65 -7 -4 -9
-4 -5 1 5 5 -3 23 -17 41 -25 33 -34 60 -15 49 5 -3 10 -2 10 4 0 5 -4 13 -10
16 -5 3 -10 23 -10 44 0 20 -5 42 -10 47 -7 7 -7 19 -2 35 7 18 6 28 -6 38
-11 11 -12 16 -3 19 9 3 9 7 0 18 -6 8 -9 23 -6 35 3 12 0 22 -8 25 -7 3 -16
12 -19 20 -3 9 -1 12 4 9 6 -3 10 -1 10 4 0 6 -4 11 -10 11 -5 0 -10 3 -9 8 3
21 -14 50 -27 45 -8 -3 -14 1 -14 11 0 20 -40 67 -52 60 -4 -3 -8 2 -8 10 0 9
-4 16 -10 16 -5 0 -7 7 -4 15 5 11 2 13 -10 9 -11 -4 -16 -1 -16 10 0 9 -7 33
-16 54 -22 48 -24 58 -27 109 -2 29 -10 49 -25 63 -12 11 -22 25 -22 29 0 5
-9 7 -20 4 -15 -4 -20 0 -20 16 0 11 -5 21 -11 21 -6 0 -9 7 -5 15 4 10 -1 14
-17 12 -15 -1 -21 3 -19 12 3 12 1 12 -13 1 -14 -12 -15 -10 -11 15 4 22 -1
34 -20 52 -30 28 -34 28 -35 6 0 -12 -4 -8 -11 10 -5 15 -16 27 -24 27 -8 0
-11 6 -8 15 4 10 0 15 -11 15 -11 0 -15 5 -11 15 8 21 -21 19 -32 -1 -9 -16
-12 -15 -35 2 -15 10 -27 23 -27 28 0 6 -7 1 -16 -10 -12 -14 -14 -15 -11 -3
4 13 1 15 -14 12 -10 -3 -19 0 -19 6 0 6 -4 11 -10 11 -5 0 -7 -6 -4 -14 3 -7
-2 -16 -11 -20 -10 -3 -18 1 -22 11 -6 15 -7 14 -14 -3 -6 -15 -8 -16 -8 -3
-1 18 -25 32 -35 22 -3 -4 -6 -14 -6 -24 0 -12 -6 -16 -20 -12 -13 4 -20 0
-20 -10 0 -8 -11 -17 -25 -19 -14 -3 -25 -1 -25 3 0 5 5 9 10 9 6 0 10 5 10
11 0 7 -10 9 -28 4 -56 -14 -73 -13 -68 4 4 10 1 9 -9 -4 -34 -48 -45 -60 -39
-44 4 13 -3 18 -35 21 -39 3 -39 3 -34 -24 4 -19 1 -28 -7 -28 -7 0 -10 8 -7
20 4 15 0 20 -14 20 -10 0 -19 6 -20 13 -1 6 -4 1 -8 -13 -5 -16 -14 -24 -25
-23 -13 1 -15 -2 -7 -10 14 -14 14 -27 1 -27 -6 0 -15 11 -20 25 -5 14 -14 25
-20 25 -7 0 -7 -6 0 -20 10 -19 10 -20 -10 -8 -17 11 -22 11 -30 -1 -7 -13
-11 -13 -25 -1 -15 12 -16 10 -10 -16 5 -27 5 -28 -6 -6 -13 23 -29 30 -29 11
0 -6 -8 -8 -18 -5 -11 4 -27 -2 -41 -15 l-22 -21 21 -18 c21 -18 21 -18 -14
-15 -28 3 -34 0 -29 -12 4 -11 2 -14 -5 -9 -7 4 -12 2 -12 -4 0 -6 8 -9 18 -6
13 4 19 1 19 -9 0 -8 -9 -15 -19 -15 -11 0 -18 -5 -15 -12 2 -7 11 -12 21 -10
9 2 16 -2 16 -9 0 -7 -10 -9 -25 -7 -31 6 -33 -12 -4 -30 12 -8 18 -9 14 -3
-3 7 2 11 14 11 14 0 19 -5 15 -15 -4 -8 -10 -15 -15 -15 -5 0 -9 -8 -9 -17 0
-15 4 -13 21 7 l20 25 -7 -25 c-4 -14 -9 -31 -12 -38 -2 -7 -1 -12 4 -10 14 3
54 -13 54 -22 0 -5 -5 -10 -10 -12 -7 -2 -8 -20 -4 -48 7 -43 8 -44 15 -17 4
16 5 35 2 43 -7 19 0 18 26 -5 13 -11 30 -17 39 -14 13 4 14 3 3 -5 -7 -5 -11
-14 -7 -20 7 -12 -18 -35 -27 -25 -12 11 -7 -11 8 -37 l14 -25 11 25 c9 23 10
21 6 -13 -4 -33 -2 -39 20 -47 30 -12 32 -24 2 -14 -20 6 -21 5 -6 -10 9 -9
21 -16 26 -16 6 0 13 -6 15 -12 4 -10 8 -10 16 2 11 16 5 33 -10 25 -5 -4 -9
1 -9 9 0 22 30 8 39 -18 8 -20 8 -20 20 2 10 18 9 22 -3 22 -8 0 -21 7 -30 15
-8 9 -20 14 -26 13 -19 -5 -41 35 -30 52 8 12 10 11 10 -7 0 -24 15 -39 24
-24 4 5 0 11 -6 14 -7 2 4 4 25 4 20 -1 38 -3 38 -6 3 -11 9 -51 12 -73 1 -15
9 -22 20 -22 17 2 17 1 2 -16 -10 -11 -14 -24 -9 -31 4 -8 3 -10 -4 -5 -7 4
-12 1 -12 -8 0 -19 17 -30 23 -14 2 7 8 10 12 5 5 -4 2 -19 -5 -33 -13 -23
-15 -24 -21 -7 -5 12 -7 8 -6 -15 0 -22 3 -29 8 -20 6 9 9 9 9 1 0 -6 9 -15
20 -18 11 -3 20 -13 20 -21 0 -8 -3 -13 -7 -11 -10 6 -34 -19 -26 -27 4 -3 3
-6 -2 -6 -4 0 -14 8 -21 18 -13 16 -14 16 -7 -3 11 -31 32 -47 59 -47 13 0 27
-4 30 -9 3 -5 -1 -9 -8 -9 -10 0 -9 -3 2 -9 8 -6 17 -8 21 -5 4 2 4 -6 1 -18
-5 -19 -7 -20 -10 -5 -2 9 -11 17 -20 17 -15 0 -15 -2 -2 -10 12 -8 10 -10 -9
-10 -16 0 -22 4 -17 15 3 9 0 15 -9 15 -8 0 -15 -3 -15 -7 1 -14 27 -43 39
-43 6 0 11 -5 11 -11 0 -7 -10 -9 -25 -7 -14 3 -28 1 -31 -3 -3 -5 1 -9 10 -9
8 0 16 -6 19 -12 3 -9 11 -5 26 11 l21 24 2 -24 c0 -13 1 -32 0 -41 -1 -12 5
-18 18 -18 11 0 20 -4 20 -10 0 -5 -5 -10 -11 -10 -5 0 -7 -5 -4 -10 4 -6 11
-8 16 -4 13 8 0 -45 -17 -71 -17 -23 -18 -35 -4 -35 6 0 10 7 10 15 0 23 14
18 27 -10 10 -22 9 -25 -8 -25 -10 0 -19 -4 -19 -10 0 -5 10 -10 23 -10 17 0
19 -2 8 -9 -12 -8 -12 -12 -2 -25 8 -9 22 -16 32 -16 11 0 19 -4 19 -10 0 -5
-9 -10 -21 -10 -12 0 -17 -4 -13 -11 3 -6 17 -8 31 -4 16 4 22 2 18 -5 -3 -5
-13 -10 -21 -10 -9 0 -14 -6 -11 -12 2 -7 11 -12 20 -12 14 1 14 -1 -1 -22
-13 -17 -23 -21 -42 -17 -22 6 -23 4 -12 -10 8 -9 11 -21 7 -27 -4 -6 -3 -10
2 -9 18 3 33 -2 33 -11 0 -5 -6 -7 -14 -4 -18 7 -28 -32 -11 -46 16 -13 26
-50 14 -50 -5 0 -9 6 -9 13 0 7 -9 18 -21 25 -18 12 -20 11 -17 -7 2 -11 -1
-20 -7 -20 -21 -1 -45 11 -45 21 0 6 -3 9 -6 6 -3 -4 -1 -16 6 -27 9 -17 8
-22 -4 -27 -9 -3 -18 -21 -22 -40 -6 -35 -36 -53 -69 -41 -8 4 -17 1 -21 -4
-3 -6 -17 -8 -30 -5 -14 4 -24 2 -24 -4 0 -5 -8 -10 -17 -11 -15 0 -15 -2 2
-8 11 -5 22 -5 25 -1 3 4 14 4 25 -1 18 -7 18 -8 -5 -10 -14 -1 -33 -3 -43 -3
-10 -1 -22 -8 -27 -16 -8 -13 -10 -12 -10 3 0 9 -5 17 -11 17 -5 0 -7 -5 -3
-12 5 -8 1 -9 -12 -5 -18 7 -18 6 -1 -7 22 -17 22 -21 -3 -23 -11 -1 -20 3
-20 10 0 6 -6 3 -13 -7 -7 -9 -17 -17 -22 -16 -28 6 -44 -1 -38 -16 5 -13 2
-15 -17 -9 -19 6 -22 4 -17 -9 4 -9 2 -16 -3 -16 -6 0 -10 6 -10 13 -1 7 -7 4
-15 -7 -11 -15 -17 -16 -28 -7 -12 9 -13 6 -9 -16 4 -22 2 -25 -12 -20 -9 4
-14 3 -11 -2 3 -5 1 -12 -4 -15 -5 -3 -11 1 -15 9 -8 21 -18 19 -49 -8 l-27
-23 0 -1787 c0 -1646 1 -1787 16 -1787 9 0 24 -9 34 -20 9 -11 35 -22 56 -25
21 -2 40 -9 42 -15 2 -5 10 -10 18 -10 9 0 12 5 8 12 -5 8 0 9 17 5 13 -4 30
-7 37 -7 7 0 11 -4 8 -9 -7 -10 52 -22 106 -21 20 0 40 -4 43 -10 4 -7 -3 -9
-22 -4 -15 4 -25 3 -21 -1 4 -4 28 -9 55 -11 26 -2 68 -6 93 -9 83 -10 165
-17 182 -17 10 1 18 -4 18 -10 0 -5 6 -8 14 -5 7 3 17 2 22 -3 11 -10 84 -23
138 -24 22 -1 41 -7 43 -13 3 -7 10 -10 18 -7 7 3 16 1 19 -5 4 -6 14 -7 23
-4 11 4 14 3 9 -5 -7 -11 16 -17 54 -14 8 1 22 -1 30 -5 8 -3 17 -7 20 -8 3 0
14 -4 25 -8 11 -4 35 -9 54 -11 18 -2 36 -8 40 -13 7 -11 86 -35 113 -34 9 0
19 -8 23 -17 5 -14 7 -14 16 -2 8 13 11 12 24 -4 7 -10 17 -16 22 -13 4 3 24
-2 43 -10 19 -9 42 -17 50 -19 34 -6 46 -10 57 -17 11 -7 157 -38 197 -42 11
-1 22 -7 24 -13 2 -7 13 -12 24 -12 33 0 128 -32 122 -42 -3 -4 4 -8 16 -8 34
0 140 -34 140 -45 0 -6 10 -11 23 -11 12 0 40 -1 62 -3 31 -2 35 -4 20 -10
-16 -7 -13 -9 18 -15 20 -4 37 -12 37 -18 0 -6 11 -8 25 -6 14 3 25 2 25 -3 0
-4 15 -5 33 -2 23 3 37 0 46 -11 16 -20 45 -21 63 -3 7 8 23 19 36 26 12 6 22
17 22 24 0 15 36 48 44 40 3 -4 6 3 6 15 0 11 4 23 8 26 5 3 9 19 10 35 0 16
12 48 26 70 14 22 26 45 26 50 0 6 15 43 34 83 19 40 40 97 47 126 10 40 15
49 20 35 6 -12 8 -7 7 17 -1 43 11 131 20 145 4 5 8 21 10 35 1 14 7 36 12 50
5 14 19 67 31 118 12 50 26 92 31 92 4 0 8 6 8 13 0 6 11 34 25 61 13 27 22
53 19 58 -3 5 4 27 15 48 11 22 18 40 15 40 -4 0 0 7 7 16 14 17 16 22 25 71
4 18 10 30 15 27 5 -3 12 3 16 13 4 10 10 20 14 23 12 9 65 105 99 183 12 26
25 47 29 47 7 0 34 60 32 73 0 4 10 25 24 47 14 22 25 46 25 53 0 7 4 17 10
23 5 5 18 36 28 68 21 66 19 87 -25 241 -14 50 -26 95 -27 102 -1 7 -5 16 -9
19 -4 4 -7 15 -7 25 0 10 -12 39 -26 65 -14 26 -30 59 -35 73 -4 14 -19 58
-33 96 -14 39 -26 79 -26 89 0 22 45 -62 55 -103 11 -46 123 -265 155 -303 33
-40 57 -48 66 -23 7 18 41 20 46 3 2 -6 12 -9 21 -5 28 11 48 54 51 114 2 32
4 63 5 69 1 7 10 14 21 17 11 3 20 11 20 19 0 8 9 14 20 15 11 1 20 -2 20 -6
0 -5 11 -11 25 -13 14 -3 25 -2 25 3 0 4 9 11 20 14 11 4 18 10 15 15 -3 5 -1
11 5 15 5 3 19 25 29 48 15 32 21 38 26 25 11 -27 33 -10 40 32 4 24 1 50 -9
74 -8 20 -11 36 -5 36 5 0 9 -7 9 -15 0 -8 5 -15 10 -15 6 0 10 -5 10 -10 0
-6 12 -23 27 -37 14 -15 55 -72 92 -127 36 -56 67 -103 70 -106 4 -3 7 -12 9
-20 2 -8 13 -26 25 -40 32 -36 227 -223 266 -256 19 -16 52 -48 74 -71 22 -24
44 -43 48 -43 4 0 61 -53 126 -118 65 -65 132 -127 150 -137 31 -18 37 -40 8
-28 -21 8 -18 -14 5 -37 11 -11 20 -24 20 -29 0 -15 97 -43 138 -40 46 3 130
-10 138 -22 3 -5 21 -9 40 -9 19 0 34 -4 34 -9 0 -5 14 -14 30 -20 17 -5 30
-15 30 -20 0 -6 16 -11 35 -11 19 0 35 4 35 10 0 5 6 7 14 4 8 -3 25 0 37 7
34 18 121 13 189 -10 71 -25 114 -26 154 -6 15 8 35 15 43 15 11 0 14 6 9 23
-3 12 -6 25 -6 29 0 4 -16 10 -35 14 -19 3 -38 10 -41 15 -3 5 -23 9 -45 9
-39 0 -54 15 -21 23 11 3 7 7 -15 12 -18 4 -33 14 -33 22 0 7 -7 24 -16 37
-17 27 -11 34 29 32 15 -1 33 4 38 11 8 8 30 10 74 6 50 -5 70 -2 90 11 15 10
25 12 25 6 0 -7 7 -4 16 4 9 10 24 14 39 10 12 -3 26 -1 29 5 4 6 26 16 49 22
23 6 44 14 47 18 16 20 80 44 128 48 31 2 59 8 62 14 4 5 11 9 16 8 9 -2 77 9
102 17 7 2 15 3 18 3 4 0 11 5 15 13 6 8 9 9 9 2 0 -9 10 -9 38 -2 65 17 163
18 186 2 20 -14 20 -14 1 -14 -17 0 -18 -2 -5 -11 11 -7 12 -12 3 -15 -7 -3
-9 -12 -6 -20 3 -8 0 -14 -7 -14 -6 0 -26 -11 -44 -25 -18 -14 -38 -25 -44
-25 -7 0 -12 -4 -12 -9 0 -5 -16 -12 -35 -15 -23 -5 -35 -13 -36 -24 0 -10 -3
-12 -6 -5 -7 19 -44 -3 -37 -22 4 -8 1 -15 -5 -15 -6 0 -11 5 -11 10 0 6 -4
10 -10 10 -5 0 -10 -7 -10 -15 0 -8 -13 -21 -30 -30 -16 -9 -30 -18 -30 -21 0
-3 3 -3 8 -1 11 7 52 -11 52 -23 0 -5 -7 -10 -15 -10 -8 0 -12 -6 -9 -14 3 -8
1 -17 -5 -21 -6 -3 -11 -1 -11 4 0 6 -4 11 -10 11 -5 0 -10 -7 -10 -15 0 -8
-7 -15 -15 -15 -8 0 -14 -5 -12 -12 1 -6 -7 -14 -18 -16 -11 -2 -24 -10 -28
-18 -4 -8 -17 -14 -27 -14 -10 0 -22 -5 -25 -11 -4 -6 -13 -8 -21 -5 -7 3 -20
-1 -28 -9 -8 -8 -31 -13 -55 -12 -26 1 -45 -4 -51 -12 -4 -8 -15 -11 -24 -8
-17 7 -32 -8 -16 -18 6 -4 5 -13 -3 -26 -10 -17 -9 -22 7 -35 11 -8 28 -15 38
-15 26 -2 32 -3 44 -11 5 -4 35 -8 65 -9 30 -1 70 -8 88 -16 19 -7 40 -12 47
-9 7 3 18 -2 24 -10 7 -8 18 -14 25 -14 15 0 28 -27 19 -41 -3 -5 -11 -9 -19
-9 -7 0 -15 -6 -18 -13 -7 -20 -70 -47 -106 -47 -17 0 -31 -5 -31 -11 0 -6 -6
-9 -14 -6 -8 3 -17 -1 -20 -9 -3 -9 -10 -12 -16 -9 -6 3 -10 -4 -10 -17 -1
-16 -14 -31 -44 -50 -24 -16 -46 -28 -50 -28 -3 0 -15 -9 -26 -20 -16 -16 -17
-20 -5 -20 8 0 15 -7 15 -15 0 -8 -9 -15 -19 -15 -11 0 -23 -4 -26 -10 -3 -6
-26 -10 -51 -10 -52 0 -89 -28 -79 -61 4 -11 2 -19 -5 -19 -6 0 -9 -4 -5 -9 3
-5 0 -13 -6 -17 -8 -4 -9 -3 -5 4 4 7 4 12 1 12 -15 0 -43 -21 -49 -36 -5 -14
2 -15 57 -12 34 2 68 7 74 11 22 14 75 3 89 -17 8 -11 14 -15 14 -9 0 7 8 11
18 11 38 -1 86 14 102 32 10 11 23 20 29 20 7 0 9 4 6 10 -6 9 32 23 51 19 5
-1 23 4 39 11 30 14 42 17 80 23 36 6 65 18 65 28 0 5 9 9 20 9 13 0 18 5 14
15 -5 11 1 15 19 15 24 0 81 41 83 61 1 5 2 14 3 19 0 6 6 10 11 10 6 0 18 8
29 18 53 50 112 97 122 97 6 0 16 7 23 16 6 9 20 19 31 21 11 2 19 9 18 15 -1
6 18 14 43 18 24 3 42 10 39 16 -4 5 2 9 12 9 10 0 38 18 62 40 25 22 52 40
60 40 9 0 33 14 53 30 31 25 41 29 57 20 26 -13 34 -13 25 2 -4 7 -3 8 4 4 13
-8 8 -44 -14 -93 -14 -31 -10 -68 7 -57 5 3 7 10 4 15 -4 5 -1 9 4 9 6 0 11
-5 11 -10 0 -6 21 -16 47 -23 29 -7 48 -19 51 -30 3 -11 9 -14 16 -9 6 5 33
17 59 26 37 14 51 15 62 6 7 -6 22 -10 32 -8 26 4 27 -53 1 -60 -17 -4 -17 -5
-1 -17 14 -11 15 -16 5 -28 -9 -11 -11 -36 -7 -84 3 -37 6 -76 6 -87 0 -10 3
-16 6 -13 3 4 12 0 20 -8 14 -14 21 -43 22 -92 1 -14 7 -23 16 -23 8 0 15 -6
15 -12 0 -9 3 -10 8 -2 10 16 48 34 71 34 15 0 19 4 14 18 -7 16 -6 16 11 0 9
-10 24 -18 32 -18 28 0 25 -28 -6 -59 -17 -17 -36 -31 -42 -31 -6 0 -18 -8
-27 -18 -26 -30 -54 -42 -74 -31 -13 8 -15 7 -10 -7 5 -13 3 -16 -10 -11 -10
4 -17 1 -17 -6 0 -15 -57 -41 -82 -39 -10 1 -18 -2 -18 -7 0 -5 -15 -12 -34
-15 -19 -4 -37 -12 -39 -19 -3 -7 -6 -7 -6 -1 -1 7 -23 8 -69 3 -37 -4 -92 -8
-122 -10 -30 -1 -60 -6 -67 -11 -7 -6 -17 -7 -23 -3 -5 3 -13 -1 -16 -9 -3 -9
-10 -14 -14 -11 -4 2 -20 -6 -35 -19 -25 -21 -37 -24 -94 -22 -72 3 -94 -1
-85 -15 3 -5 1 -9 -4 -9 -17 0 -20 -48 -5 -55 8 -3 18 -3 22 0 4 2 8 -2 8 -10
0 -8 -7 -15 -16 -15 -14 -1 -14 -2 1 -14 13 -9 14 -16 6 -24 -8 -8 -8 -15 2
-27 12 -14 11 -16 -12 -10 -19 5 -29 2 -36 -12 -6 -10 -13 -17 -16 -15 -17 7
-45 0 -49 -12 -5 -12 8 -15 64 -15 41 0 69 4 69 10 0 6 19 9 45 8 24 -2 47 0
51 4 14 14 31 7 29 -12 -2 -30 -25 -51 -54 -51 -20 0 -23 -2 -11 -10 13 -9 13
-11 0 -20 -8 -5 -24 -9 -35 -9 l-20 0 20 9 c16 7 17 9 3 9 -9 1 -20 -3 -23 -9
-3 -5 -17 -10 -31 -10 -14 0 -24 -6 -24 -14 0 -8 -5 -16 -11 -18 -17 -6 1 -36
24 -41 18 -3 17 -5 -5 -6 -16 0 -27 -6 -25 -13 2 -13 -37 -17 -69 -6 -27 8
-64 -16 -64 -42 0 -11 10 -25 23 -31 12 -7 25 -17 29 -23 9 -13 -20 -46 -41
-47 -14 0 -14 -1 -1 -7 8 -4 15 -13 15 -21 0 -8 6 -16 13 -19 7 -2 10 2 6 12
-5 12 -2 15 10 10 11 -4 15 -13 11 -22 -5 -13 -2 -12 14 2 11 10 24 15 30 12
5 -3 11 -2 13 4 2 7 21 7 58 0 79 -16 110 -21 149 -25 18 -1 37 -8 40 -14 4
-7 31 -10 64 -8 50 2 57 0 57 -17 0 -13 5 -17 19 -13 15 3 24 -3 35 -26 13
-27 13 -35 0 -58 -17 -34 -34 -46 -34 -24 0 9 5 13 10 10 6 -3 10 -1 10 4 0
25 -29 8 -35 -20 -4 -17 -13 -33 -21 -36 -8 -3 -14 -13 -15 -22 0 -10 -2 -11
-6 -3 -2 6 -10 9 -15 5 -7 -4 -9 1 -6 15 4 14 2 19 -8 15 -7 -3 -12 -10 -11
-16 1 -7 -7 -12 -18 -12 -11 0 -21 -8 -23 -18 -2 -9 -8 -14 -14 -11 -6 4 -17
-1 -25 -11 -7 -11 -13 -13 -13 -7 0 14 -58 13 -77 -1 -7 -5 -20 -7 -28 -3 -9
3 -13 2 -10 -4 3 -6 -3 -10 -15 -10 -26 0 -48 -20 -42 -39 2 -7 -2 -17 -9 -22
-10 -6 -6 -9 14 -9 15 0 27 -4 27 -8 0 -4 16 -14 35 -21 24 -8 35 -18 33 -29
-2 -11 3 -16 15 -14 9 2 17 -3 17 -10 0 -9 2 -10 8 -2 5 9 11 8 20 -2 8 -9 9
-14 2 -14 -6 0 -9 -4 -5 -10 3 -5 13 -6 22 -3 11 4 14 3 9 -6 -8 -12 -42 -11
-65 3 -8 5 -16 4 -20 -2 -7 -12 -23 -15 -79 -13 -40 1 -42 2 -27 17 12 12 27
15 56 11 39 -5 40 -5 22 12 -10 10 -28 16 -43 13 -20 -3 -22 -1 -10 7 12 9 10
11 -12 12 -28 1 -46 5 -50 9 -2 1 -24 3 -49 4 -38 1 -45 -1 -44 -16 2 -25 26
-48 32 -30 3 6 9 12 14 12 4 0 6 -7 3 -15 -5 -11 1 -15 21 -15 16 0 24 -4 20
-11 -4 -6 -19 -10 -33 -9 -15 1 -51 2 -79 1 l-53 -1 18 -34 c9 -19 20 -32 23
-30 10 6 74 -54 67 -62 -5 -4 -8 -3 -8 3 0 7 -20 9 -51 7 -29 -2 -57 -1 -63 3
-6 4 -36 8 -68 10 -32 1 -67 7 -78 13 -16 8 -25 8 -35 0 -10 -8 -14 -8 -17 1
-5 16 -78 40 -78 25 0 -8 -2 -8 -8 1 -4 6 -38 19 -75 29 -37 9 -67 20 -67 25
0 10 -31 -1 -47 -17 -13 -13 -53 -8 -53 7 0 5 -7 6 -15 3 -8 -4 -15 -1 -15 4
0 6 -27 16 -60 23 -33 6 -60 14 -60 18 0 3 -17 6 -38 5 -20 0 -44 3 -53 7 -9
5 -19 5 -23 2 -8 -9 14 -34 25 -27 5 3 9 -2 9 -10 0 -9 5 -16 10 -16 6 0 19
-9 30 -20 11 -11 27 -20 35 -20 8 0 15 -4 15 -9 0 -9 66 -22 140 -27 70 -4
142 -28 129 -41 -9 -9 -7 -11 7 -9 10 2 20 8 22 14 5 15 32 16 32 2 0 -5 7
-10 16 -10 8 0 22 -7 30 -15 14 -13 11 -15 -25 -15 -26 0 -41 5 -41 13 0 9 -2
9 -9 -1 -10 -17 -126 -18 -197 -2 -39 9 -281 6 -291 -3 -1 -2 -4 -20 -6 -40
-3 -27 0 -40 12 -48 13 -9 12 -9 -4 -3 -11 4 -31 8 -45 8 -14 1 -30 4 -36 8
-6 4 -30 10 -52 14 -23 4 -42 10 -42 15 0 5 -9 9 -21 9 -11 0 -35 10 -52 22
-18 13 -34 22 -37 21 -11 -4 -55 11 -62 21 -11 17 -40 -17 -32 -37 3 -9 10
-17 14 -17 4 0 24 -16 44 -35 20 -19 40 -34 44 -34 20 3 53 -16 67 -38 24 -36
8 -47 -46 -32 -24 7 -52 14 -61 16 -9 1 -49 14 -90 27 -107 35 -138 41 -138
24 0 -19 68 -94 81 -90 6 1 8 -2 4 -8 -3 -6 -11 -8 -16 -4 -5 3 -18 -5 -29
-18 -18 -22 -18 -24 -1 -43 10 -11 17 -25 14 -32 -2 -7 8 -13 24 -15 26 -4 25
-5 -14 -16 -23 -7 -43 -16 -45 -21 -5 -14 -157 -19 -161 -7 -3 7 -9 7 -19 -1
-11 -10 -22 -8 -52 8 -21 11 -35 15 -31 10 3 -6 1 -11 -4 -11 -6 0 -11 5 -11
10 0 6 -6 10 -14 10 -8 0 -44 16 -81 35 -36 20 -70 33 -76 30 -5 -4 -9 -1 -9
4 0 6 -7 11 -15 11 -9 0 -18 7 -21 15 -6 15 -61 44 -111 59 -14 5 -20 12 -16
22 3 9 -2 14 -16 14 -12 0 -21 6 -21 13 0 6 -15 18 -32 26 -18 8 -46 28 -62
44 l-29 30 -23 -26 c-28 -33 -94 -39 -94 -9 0 15 -7 18 -41 16 -28 -1 -42 3
-46 13 -3 8 -2 18 4 22 6 4 5 15 -3 29 -7 15 -14 20 -19 13 -11 -18 -24 -3
-18 22 l5 22 -21 -24 c-25 -28 -27 -41 -5 -41 11 0 14 -6 9 -21 -5 -15 -4 -19
4 -15 6 4 11 2 11 -3 0 -6 7 -11 16 -11 8 0 13 -4 10 -9 -4 -5 0 -12 6 -14 9
-4 8 -6 -2 -6 -8 -1 3 -10 24 -22 56 -30 73 -48 55 -60 -11 -7 -11 -9 4 -9 9
0 35 -11 56 -25 22 -13 85 -40 141 -58 92 -32 129 -55 130 -82 0 -11 -155 -14
-166 -2 -4 4 -14 -2 -22 -14 -8 -11 -20 -18 -27 -15 -16 6 -78 -51 -65 -59 6
-4 10 -10 10 -16 0 -15 -22 -10 -35 7 -9 14 -16 14 -33 5 -19 -10 -23 -9 -32
11 -15 37 -33 54 -78 76 -37 18 -56 20 -125 15 -59 -3 -86 -9 -94 -21 -12 -14
-13 -14 -13 4 -1 16 -3 15 -15 -6 -12 -22 -11 -27 3 -41 10 -9 20 -15 23 -13
4 2 12 -3 19 -11 7 -8 15 -13 19 -10 4 2 25 -2 47 -10 26 -9 38 -19 36 -29 -4
-21 15 -20 27 2 10 16 10 16 11 -1 0 -10 8 -30 17 -44 l18 -27 6 29 7 30 1
-27 c1 -25 5 -28 36 -28 19 0 35 4 35 9 0 5 10 13 23 17 12 4 25 12 29 18 5 7
8 5 8 -5 0 -15 11 -16 82 -13 44 3 106 0 136 -7 81 -16 119 -18 248 -8 64 5
122 5 128 1 18 -14 84 -14 109 0 12 7 25 11 30 10 4 -1 7 3 7 8 0 6 29 9 75 7
55 -3 80 -8 95 -22 13 -12 20 -14 20 -5 0 8 9 11 25 8 14 -3 25 -1 25 3 0 5 5
9 11 9 6 0 9 -9 6 -20 -7 -26 10 -26 18 -1 3 11 14 22 23 25 56 15 76 16 82 6
4 -7 15 -2 31 14 27 29 41 33 32 10 -5 -12 3 -15 43 -14 27 1 67 -3 88 -9 22
-5 44 -8 48 -5 4 3 8 1 8 -3 0 -5 36 -8 80 -8 44 0 80 4 80 9 0 5 3 7 6 3 4
-3 29 3 57 13 27 11 54 17 60 13 5 -3 13 0 17 8 5 7 30 14 57 16 26 2 63 8 80
13 20 5 35 5 39 -1 9 -14 24 -10 24 7 0 9 5 12 12 8 6 -4 17 1 24 11 8 10 17
15 21 10 5 -4 2 -10 -4 -12 -7 -3 -13 -9 -13 -15 0 -5 16 4 36 21 20 18 41 30
47 28 6 -2 19 5 29 15 10 10 23 18 28 18 27 0 -10 -50 -39 -53 -12 -1 -21 -5
-21 -9 0 -14 28 -21 48 -13 9 5 26 8 37 7 16 -1 17 0 3 4 -21 6 -23 25 -6 42
18 18 32 14 17 -5 -15 -18 -16 -18 36 3 11 4 15 0 15 -15 0 -12 6 -21 14 -21
8 0 16 -6 19 -14 7 -17 -34 -46 -69 -50 -13 -2 -27 -6 -31 -9 -3 -4 -15 -7
-25 -7 -11 0 -16 -4 -13 -10 3 -5 2 -10 -4 -10 -5 0 -15 8 -20 18 -10 16 -10
16 -11 -2 0 -12 -5 -16 -15 -12 -8 3 -15 1 -15 -4 0 -5 -18 -8 -41 -8 -37 0
-61 -7 -159 -50 -19 -8 -42 -15 -50 -15 -8 0 -20 -4 -26 -9 -6 -4 -18 -6 -27
-2 -8 3 -39 -2 -67 -10 -29 -9 -56 -13 -60 -11 -5 3 -21 0 -36 -5 -16 -6 -44
-13 -64 -15 -19 -2 -55 -12 -80 -20 -24 -9 -57 -17 -73 -17 -15 -1 -30 -5 -33
-10 -3 -4 -25 -8 -49 -8 -24 0 -56 -5 -71 -10 -30 -12 -32 -12 -179 -34 -55
-8 -125 -21 -155 -29 -30 -8 -107 -24 -170 -36 -63 -12 -125 -26 -137 -31 -28
-11 -157 -13 -203 -2 -19 4 -62 4 -95 0 -33 -4 -123 -10 -200 -13 -77 -3 -151
-7 -165 -10 -49 -9 -163 -15 -181 -10 -11 4 -17 11 -14 16 4 5 -4 9 -17 10
-13 0 -34 3 -48 6 -14 2 -60 4 -103 4 -67 -1 -83 3 -110 22 -48 34 -126 67
-161 67 -23 0 -116 37 -126 50 -9 12 -95 48 -130 54 -44 7 -98 20 -179 42 -44
12 -65 23 -69 36 -2 10 -8 18 -13 18 -5 0 -6 -7 -3 -15 11 -27 -6 -16 -18 13
l-12 27 -4 -40 c-2 -22 -9 -44 -15 -48 -9 -7 -9 -10 0 -14 7 -2 23 -22 35 -44
12 -21 25 -39 29 -39 4 0 31 -25 60 -55 29 -30 59 -55 68 -55 9 0 29 -7 45
-15 15 -8 34 -15 41 -15 8 0 20 -6 27 -13 42 -39 79 -49 191 -51 62 -1 117 -5
124 -9 29 -19 241 -28 568 -25 121 1 247 1 280 0 33 -1 101 3 150 9 50 6 133
12 185 14 87 4 155 10 235 21 140 19 327 49 460 74 88 17 189 35 225 41 35 5
110 21 165 34 117 29 237 54 281 60 16 3 68 14 115 26 46 11 118 27 159 34
133 24 341 71 377 85 13 5 51 12 85 16 35 3 66 8 70 10 3 2 73 11 155 18 102
10 163 21 196 35 27 12 53 18 59 15 5 -3 21 -1 36 5 15 5 50 12 77 15 28 2 88
14 135 25 47 12 103 21 125 21 35 0 143 17 230 36 17 4 38 6 48 6 9 0 17 3 17
7 0 12 165 17 295 8 17 -1 36 -6 43 -10 7 -5 12 -3 12 6 0 10 7 13 20 10 22
-6 80 14 80 28 0 14 38 11 44 -3 5 -10 7 -10 12 0 13 29 24 8 24 -48 l0 -61
57 62 c69 74 78 86 87 121 6 27 31 58 45 58 12 0 61 -48 61 -59 0 -6 17 -9 40
-7 22 2 37 -1 34 -5 -8 -13 10 -11 23 2 17 17 34 1 27 -26 -8 -31 4 -65 22
-65 8 0 20 -12 26 -27 7 -16 13 -30 15 -32 6 -9 66 63 80 96 24 58 45 86 54
72 4 -8 0 -19 -11 -29 -18 -15 -18 -17 1 -55 21 -45 23 -59 9 -50 -5 3 -7 0
-4 -9 3 -8 12 -17 19 -20 8 -3 11 -13 8 -28 l-6 -23 21 23 c14 16 22 19 25 10
4 -10 8 -10 16 2 10 13 12 13 21 0 5 -8 10 -20 10 -26 0 -17 33 -12 51 9 9 9
20 17 25 17 5 0 15 9 22 20 7 11 16 20 22 20 12 0 78 43 107 70 12 11 26 20
30 20 4 1 42 32 83 71 41 38 95 86 119 107 24 20 78 71 121 112 43 41 100 94
126 117 81 69 304 290 304 300 0 5 27 29 59 54 33 24 65 53 71 64 6 11 34 38
62 60 66 52 126 112 149 150 10 17 42 48 71 70 29 23 62 55 73 73 11 17 28 34
37 37 9 3 27 22 38 41 12 18 28 34 37 34 27 0 211 182 268 266 36 54 63 82
128 134 31 25 56 50 57 55 1 16 37 55 50 55 19 0 142 132 165 176 11 21 26 45
32 52 7 7 13 20 13 28 0 8 12 27 28 42 15 15 35 39 44 54 15 22 15 27 3 32
-10 3 -15 -1 -15 -11 0 -14 -3 -14 -21 3 -18 16 -18 19 -4 24 9 3 16 8 15 10
-1 3 2 13 6 23 8 23 -4 36 -16 17 -6 -9 -10 -10 -10 -3 0 17 40 83 51 83 5 0
9 8 9 18 0 11 13 37 29 59 37 51 64 103 57 110 -3 3 7 29 22 57 59 114 60 138
3 90 -37 -31 -39 -24 -6 40 l24 48 -48 -43 c-26 -24 -58 -66 -71 -94 -15 -33
-24 -44 -27 -33 -2 9 7 35 21 57 27 42 33 71 16 71 -5 0 -7 7 -3 16 5 14 3 14
-15 3 -11 -7 -19 -16 -16 -20 4 -7 -23 -20 -53 -25 -21 -4 -15 14 10 27 23 13
99 93 126 133 56 84 109 155 138 184 18 18 33 38 33 45 0 8 -4 6 -10 -3 -8
-12 -10 -11 -10 8 0 12 5 22 10 22 14 0 90 80 90 95 0 8 -8 11 -20 8 -11 -3
-20 -9 -20 -14 0 -5 -6 -9 -14 -9 -7 0 -19 -6 -25 -14 -6 -7 -21 -12 -34 -11
-12 1 -33 3 -47 4 -25 1 -25 1 10 31 19 16 38 31 43 31 4 1 12 2 19 3 7 0 18
11 24 24 6 13 27 39 45 58 l33 34 -35 1 c-50 2 -74 -2 -77 -12 -2 -5 -8 -9
-12 -9 -11 0 -79 -45 -102 -68 -40 -40 -48 -44 -48 -25 0 13 -3 14 -12 5 -7
-7 -19 -12 -28 -12 -9 0 -22 -11 -28 -25 -6 -14 -18 -25 -27 -25 -22 0 -18 17
10 48 32 35 32 39 -8 38 -30 -1 -89 -31 -120 -59 -6 -7 -25 -19 -40 -27 -36
-18 -75 -56 -106 -101 -23 -34 -28 -36 -77 -35 -33 0 -59 -5 -71 -15 -21 -17
-73 -41 -73 -33 0 10 47 51 110 94 36 25 67 47 70 50 3 3 17 11 33 19 15 8 27
18 27 23 0 4 5 8 10 8 15 0 70 55 71 71 1 20 34 74 45 74 11 0 124 114 124
125 0 5 -9 8 -20 7 -11 -1 -20 -5 -20 -9 0 -4 -4 -8 -10 -8 -20 0 -9 15 31 43
48 33 44 49 -8 35 -21 -5 -48 -12 -60 -15 -12 -3 -30 -14 -39 -24 -9 -10 -22
-19 -29 -19 -6 0 -16 -5 -23 -12 -15 -15 -42 -19 -42 -7 0 20 -86 -6 -205 -61
-11 -5 -38 -16 -60 -25 l-40 -16 26 25 c14 13 39 31 55 39 47 24 101 71 97 84
-3 7 3 9 16 6 11 -3 32 2 48 10 15 8 54 19 85 25 32 6 77 20 100 31 46 21 140
73 148 81 3 3 28 23 55 45 28 21 57 46 65 55 8 9 28 25 43 37 38 29 17 38 -35
15 -66 -29 -81 -34 -110 -37 -16 -1 -28 -2 -28 0 0 1 21 13 48 26 26 13 49 27
52 30 3 3 23 15 45 27 22 11 51 31 65 44 29 27 121 78 142 78 8 0 24 9 36 21
13 11 56 37 97 57 60 30 72 40 65 52 -6 10 -10 11 -10 3 0 -8 -13 -13 -30 -13
-17 0 -38 -4 -48 -9 -9 -5 -51 -23 -92 -39 -41 -16 -100 -40 -130 -52 -30 -12
-67 -25 -82 -27 -16 -3 -28 -9 -28 -13 0 -12 -89 -40 -95 -30 -3 5 -35 -2 -70
-15 -35 -14 -79 -26 -97 -27 -18 -1 -40 -6 -48 -12 -13 -9 -13 -8 -3 5 7 9 38
22 68 29 30 7 55 17 55 22 0 4 10 8 22 8 26 0 118 40 118 52 0 14 -34 9 -125
-21 -50 -16 -92 -28 -93 -26 -5 5 109 58 133 62 17 3 88 34 147 64 10 5 30 9
46 9 15 0 32 4 38 9 5 5 27 14 48 21 22 7 45 17 50 22 6 5 36 25 66 44 30 19
54 39 53 44 -2 5 3 7 10 4 8 -3 14 1 14 9 0 14 -30 12 -52 -3 -5 -4 -32 -13
-60 -20 -27 -7 -54 -17 -59 -21 -6 -5 -20 -9 -33 -9 -13 0 -23 -4 -23 -10 0
-5 -11 -10 -25 -10 -31 0 -32 11 -2 26 126 64 131 67 110 75 -25 9 -133 -14
-223 -47 -70 -26 -182 -37 -215 -21 -43 22 -168 -3 -172 -33 -2 -11 7 -15 32
-16 19 0 35 3 35 8 0 4 9 8 21 8 28 0 19 -21 -17 -40 -16 -8 -31 -17 -34 -20
-3 -3 -16 -6 -30 -8 -14 -1 -43 -9 -65 -16 -49 -17 -154 -40 -255 -56 -41 -7
-93 -18 -115 -25 -22 -7 -64 -16 -94 -19 -30 -4 -66 -9 -79 -13 -17 -4 -23 -2
-18 6 4 6 13 11 21 11 8 0 29 8 47 19 40 23 171 53 195 45 15 -5 15 -4 4 4
-11 8 -7 11 20 14 19 2 34 9 34 16 0 7 7 17 15 23 11 8 12 12 3 15 -7 3 -10
11 -7 17 7 18 -180 4 -241 -18 -55 -20 -234 -44 -271 -37 -28 5 -32 22 -6 22
10 0 23 5 28 10 6 6 28 11 50 13 21 1 44 5 50 9 9 6 92 18 219 32 95 11 150
34 88 38 -42 2 -46 3 -67 14 -15 9 -1 13 71 23 49 6 101 11 114 11 14 0 29 4
34 9 6 6 47 12 93 15 45 3 101 10 123 16 23 6 44 9 47 6 3 -3 -1 -6 -9 -7 -21
-1 82 -29 109 -29 12 0 22 4 22 9 0 5 10 11 23 15 18 5 19 8 7 16 -8 5 -22 7
-32 4 -9 -2 -19 0 -23 6 -3 5 2 10 12 10 10 1 36 8 58 16 22 8 53 17 69 20 16
3 38 9 50 14 17 7 14 9 -19 10 -34 1 -37 3 -18 10 12 5 44 10 70 12 27 1 53 5
58 9 21 13 64 19 87 10 23 -9 23 -9 -7 -16 -50 -11 -52 -13 -8 -14 23 -1 45 4
48 9 3 6 16 10 28 10 16 0 19 3 8 9 -10 6 -1 11 30 17 24 4 46 8 49 9 3 1 28
5 55 10 28 4 75 16 105 27 30 10 89 23 130 29 41 6 90 19 110 30 l35 20 -45
-6 c-25 -3 -88 -7 -140 -10 l-95 -5 35 18 c19 9 40 22 47 27 7 6 19 16 28 23
8 7 15 19 15 26 0 14 -100 21 -235 18 -29 0 -44 2 -36 7 22 14 -49 20 -101 9
-49 -10 -62 -23 -30 -31 9 -3 0 -5 -21 -6 -29 -1 -44 5 -64 27 -15 15 -23 20
-18 12 6 -12 5 -12 -5 -3 -7 6 -19 9 -28 5 -11 -4 -14 -1 -10 10 5 12 -3 17
-40 21 -26 3 -67 9 -91 12 -51 7 -95 -1 -85 -16 4 -7 -4 -9 -22 -7 -17 2 -28
8 -27 15 2 7 0 12 -5 11 -4 0 -15 2 -25 6 -23 11 -67 -1 -62 -17 7 -18 -71
-20 -198 -6 -87 10 -120 10 -170 0 -34 -7 -67 -17 -73 -22 -7 -6 -22 -5 -39 1
-39 15 -124 19 -128 6 -2 -7 -48 -10 -130 -9 -124 3 -127 2 -115 -17 7 -11 22
-19 33 -19 121 1 388 -20 400 -33 17 -17 -338 -19 -477 -3 -103 12 -138 13
-138 2 0 -7 -4 -7 -12 1 -7 7 -22 12 -34 12 -12 0 -37 6 -55 14 -25 10 -52 11
-104 5 -95 -11 -137 -11 -130 0 3 6 -16 12 -42 16 -27 3 -75 10 -108 16 -60
10 -91 9 -111 -3 -16 -11 -124 -19 -124 -10 0 4 19 15 41 23 39 14 40 16 25
32 -18 18 -21 16 54 30 14 3 58 17 97 31 45 15 107 28 163 32 49 4 87 10 85
14 -7 12 33 20 97 20 31 0 67 4 80 9 29 11 96 2 77 -10 -9 -6 -3 -8 18 -6 18
1 45 14 63 31 25 22 47 30 100 37 77 9 340 7 357 -4 6 -4 32 -9 59 -12 27 -3
63 -10 81 -14 30 -9 43 -6 43 9 0 14 -98 49 -131 48 -48 -1 -119 12 -119 23 0
5 -19 9 -42 9 -38 1 -41 2 -23 12 11 7 53 12 93 12 40 -1 69 3 65 7 -13 11
-158 26 -188 18 -11 -3 -98 9 -127 18 -10 2 -18 11 -18 18 0 11 8 13 31 8 19
-4 34 -1 38 6 6 8 29 7 92 -4 46 -8 131 -14 189 -14 72 0 117 -5 140 -15 19
-8 29 -15 23 -16 -28 0 -11 -18 25 -26 54 -11 55 -11 75 -2 10 5 17 5 17 -2 0
-5 -5 -10 -12 -10 -9 0 -9 -3 -1 -11 7 -7 32 -9 69 -5 33 4 86 9 119 12 33 3
64 12 70 20 5 8 41 18 80 23 l70 8 -78 1 c-43 0 -81 2 -84 5 -2 3 21 9 52 12
43 6 71 3 114 -10 36 -12 98 -20 176 -22 66 -2 124 -8 130 -12 18 -15 89 -23
185 -22 119 2 162 7 225 28 33 11 90 17 165 18 114 2 204 13 330 41 76 16 110
18 110 4 0 -15 34 -9 230 44 52 14 138 37 190 50 95 24 212 59 325 98 117 39
222 66 345 88 182 32 290 62 290 81 0 5 18 9 39 9 22 0 60 9 86 20 26 11 66
20 90 20 24 0 47 5 50 10 3 6 17 10 29 10 13 0 49 11 80 25 32 14 61 23 66 20
5 -3 23 1 39 10 17 8 39 15 50 15 11 0 47 25 79 55 44 40 62 65 66 90 4 19 12
35 17 35 12 0 48 40 49 54 0 6 10 20 22 33 21 23 21 23 3 37 -17 12 -25 11
-60 -7 -22 -12 -42 -24 -45 -27 -3 -3 -23 -15 -45 -26 -88 -47 -141 -79 -167
-100 -27 -22 -73 -41 -158 -65 -25 -6 -55 -19 -68 -26 -13 -8 -34 -16 -46 -17
-31 -3 -96 -45 -96 -61 0 -8 -12 -27 -26 -42 -24 -27 -25 -27 -19 -4 7 22 6
23 -36 17 -24 -3 -83 -10 -131 -15 -48 -6 -102 -18 -119 -27 -47 -24 -111 -45
-104 -34 10 15 -38 12 -117 -9 -153 -39 -241 -54 -543 -91 -49 -6 -115 -20
-148 -31 -32 -11 -93 -24 -135 -29 -101 -13 -123 -18 -209 -46 -40 -13 -143
-38 -230 -56 -152 -30 -168 -32 -408 -32 -280 -1 -485 13 -485 33 0 3 -29 8
-65 9 -35 2 -79 7 -97 13 -18 5 -54 9 -80 9 -26 0 -58 4 -71 9 -13 5 -61 12
-108 16 -46 4 -86 8 -90 11 -4 2 -28 6 -55 9 -27 3 -74 12 -104 20 -30 7 -84
16 -119 20 -35 3 -85 13 -109 22 -61 20 -202 12 -233 -14 -15 -12 -28 -11
-154 7 -90 13 -126 27 -118 45 3 10 -16 15 -71 20 -75 7 -88 17 -57 41 11 9
10 12 -8 17 -11 3 -21 9 -21 14 0 12 17 14 105 14 43 0 72 4 77 12 12 19 9 25
-14 25 -37 1 -88 14 -94 23 -7 11 39 29 91 36 22 2 90 5 150 6 61 0 102 3 92
5 -9 2 -14 8 -11 14 4 7 2 8 -4 4 -7 -4 -12 -3 -12 3 0 5 -25 15 -55 22 -30 7
-61 19 -68 28 -6 8 -7 12 -2 9 6 -3 30 -3 55 1 l45 6 -35 19 c-29 15 -64 19
-194 21 -159 4 -160 3 -183 -21 -12 -13 -30 -24 -40 -24 -17 1 -17 1 -1 11 49
28 -48 48 -101 20 -12 -7 -26 -9 -32 -5 -6 3 -35 3 -65 -1 -47 -6 -53 -9 -43
-21 21 -26 -3 -34 -100 -36 -63 -1 -96 3 -104 12 -9 9 -9 14 -1 17 6 2 20 10
30 17 17 13 12 15 -41 20 -33 3 -87 11 -120 17 -75 13 -206 15 -226 4 -8 -4
-11 -5 -7 0 4 4 3 14 -4 22 -16 20 -3 27 53 29 53 1 82 14 33 14 -58 1 -189
36 -189 51 0 7 9 15 20 17 22 5 45 20 45 32 0 33 -82 73 -129 64 -16 -4 -32
-1 -35 5 -4 6 -27 11 -50 11 -29 0 -52 7 -67 20 l-24 19 80 1 c71 1 165 5 203
9 7 0 10 5 7 11 -4 6 18 9 55 9 61 -1 74 -10 43 -28 -15 -9 -14 -10 10 -11 17
0 27 5 27 15 0 9 6 12 16 8 13 -5 13 -7 2 -14 -10 -7 -8 -9 7 -10 11 -1 26 -1
34 0 7 2 10 -2 7 -7 -9 -14 113 -30 172 -22 30 3 80 5 113 4 34 -2 59 1 59 6
0 6 -22 10 -49 10 -48 0 -63 10 -54 38 3 6 13 12 23 12 9 0 23 7 30 15 10 12
9 15 -4 15 -10 0 -14 5 -11 11 8 12 -117 10 -125 -2 -3 -5 -20 -9 -38 -11 -18
-1 -32 -6 -32 -11 0 -5 8 -7 19 -4 10 2 28 -3 41 -13 l22 -17 -35 2 c-20 0
-44 9 -55 18 -15 14 -25 15 -45 8 -14 -5 -27 -7 -31 -4 -3 3 -32 6 -66 6 -33
0 -60 4 -60 9 0 5 -4 6 -10 3 -5 -3 -10 -2 -10 3 0 5 -10 14 -22 20 -16 7 -18
11 -7 11 23 1 19 32 -5 41 -36 14 -72 31 -53 25 14 -4 17 -1 12 14 -4 13 2 23
18 34 30 19 129 14 160 -8 12 -8 28 -15 37 -15 13 0 13 1 0 10 -11 7 -8 8 13
6 15 -1 30 -6 34 -9 3 -4 20 -7 37 -7 24 0 27 3 16 10 -13 8 -12 10 3 10 20 0
21 -9 3 -33 -12 -15 -24 -17 -70 -13 -55 4 -63 1 -48 -20 20 -30 276 -49 323
-24 24 13 25 30 2 30 -15 0 -16 2 -3 10 13 9 13 10 -1 10 -23 0 -84 33 -87 48
-1 6 6 12 15 12 15 0 15 2 4 9 -8 5 -44 7 -80 4 -36 -2 -73 -5 -81 -5 -37 -3
-50 3 -50 22 0 13 -5 18 -15 14 -8 -4 -15 -2 -15 4 0 5 -17 12 -37 15 -21 3
-51 10 -68 17 -30 12 -30 12 -7 21 13 5 20 14 16 20 -4 8 -40 9 -113 5 -58 -3
-112 -5 -119 -6 -7 0 -11 -4 -8 -9 3 -5 -1 -12 -10 -15 -8 -3 -12 -2 -9 4 3 6
4 10 1 10 -3 0 -10 -10 -17 -21 -8 -15 -8 -19 0 -15 6 4 11 0 11 -8 0 -9 -7
-16 -15 -16 -8 0 -15 5 -15 10 0 6 -17 10 -37 10 -28 0 -34 3 -23 10 10 6 11
10 3 10 -7 0 -13 6 -13 14 0 9 -9 12 -27 9 -22 -4 -25 -2 -13 6 8 6 27 11 43
11 18 0 27 5 27 16 0 10 -6 14 -15 11 -8 -4 -17 -2 -20 4 -4 5 1 12 9 15 9 3
13 10 10 15 -3 5 6 9 19 9 32 0 56 26 30 33 -15 4 -15 5 3 6 11 0 25 6 31 12
8 8 31 8 85 -1 40 -7 67 -15 61 -17 -7 -3 -13 -11 -13 -18 0 -15 68 -26 73
-11 2 6 11 6 23 1 10 -4 73 -9 139 -11 66 -2 151 -7 188 -13 59 -8 71 -7 88 7
11 9 25 17 32 18 6 0 23 2 37 3 24 2 24 2 6 16 -29 22 -6 18 29 -5 36 -24 121
-27 151 -6 18 13 24 13 48 0 19 -9 33 -11 45 -4 14 8 14 9 -2 10 -10 0 -15 5
-12 10 3 6 1 10 -4 10 -6 0 -11 8 -11 18 0 11 -8 18 -22 19 -97 8 -77 32 27
34 39 1 60 4 48 6 -13 2 -23 9 -23 14 0 5 -9 9 -19 9 -11 0 -40 9 -66 20 -26
11 -52 17 -58 14 -7 -3 -3 2 7 10 23 18 14 21 -15 5 -20 -10 -59 -4 -58 9 4
24 -5 22 -31 -8 l-31 -34 -94 1 c-74 0 -101 5 -122 19 l-28 18 39 11 c22 6 42
18 45 26 3 12 1 11 -14 -1 -17 -14 -18 -13 -12 15 6 25 5 27 -5 14 -10 -12
-34 -15 -105 -15 -78 0 -97 -3 -120 -21 -16 -11 -30 -29 -32 -39 -2 -10 -8
-22 -13 -25 -7 -4 -6 -14 1 -28 10 -19 9 -22 -14 -31 -42 -16 -65 -20 -150
-24 -91 -5 -125 0 -125 19 0 22 15 26 100 30 81 4 100 9 100 25 0 10 -54 31
-95 36 -59 9 -67 11 -73 21 -13 18 -53 35 -100 39 -116 12 -168 27 -242 70
-52 29 -89 44 -113 44 -93 0 -275 55 -284 86 -2 7 17 9 58 6 51 -4 63 -2 72
13 8 14 11 15 18 4 6 -9 7 -5 3 14 -5 23 -3 27 15 27 12 0 21 -4 21 -9 0 -10
10 -14 63 -25 20 -5 27 -3 22 5 -5 7 -1 9 12 5 11 -3 34 1 51 9 28 15 30 18
20 41 -6 13 -14 24 -18 24 -4 0 -2 18 4 41 9 34 8 43 -4 52 -16 12 -19 45 -6
65 3 6 -2 13 -11 16 -30 9 -356 5 -375 -5 -22 -12 -55 -13 -218 -5 -190 8
-195 10 -193 63 1 7 -3 11 -7 8 -4 -3 -10 1 -13 9 -7 17 -69 15 -74 -1 -5 -13
-56 -1 -78 17 -8 6 -26 10 -42 9 -15 -2 -48 0 -72 5 -35 7 -47 5 -56 -7 -9
-13 -17 -12 -64 10 -34 17 -51 30 -47 39 3 7 -2 18 -11 23 -25 13 86 25 150
16 65 -9 201 -7 230 5 20 7 20 9 5 15 -10 4 -18 14 -18 23 0 8 -13 27 -30 42
-22 20 -39 26 -68 24 -22 -1 -45 -4 -51 -8 -6 -4 -11 -4 -11 1 0 4 -28 7 -62
6 -53 -2 -71 3 -113 26 -53 30 -103 39 -172 34z m2820 -1848 c16 -10 46 -14
105 -12 45 1 82 -1 82 -5 0 -5 -7 -8 -15 -8 -8 0 -15 -9 -15 -20 0 -21 20 -28
21 -7 0 11 17 -20 18 -35 1 -4 -25 -7 -57 -6 -41 1 -66 -4 -83 -15 -28 -20
-82 -22 -98 -4 -6 8 -8 17 -4 20 3 4 -8 12 -26 18 -50 18 -66 66 -17 53 14 -3
28 2 40 15 23 25 21 25 49 6z m182 -1135 c3 -5 -2 -10 -12 -10 -17 -1 -17 -1
0 -11 11 -6 46 -8 85 -5 91 7 125 7 363 6 161 0 210 -3 225 -15 19 -14 19 -14
-1 -13 -11 0 -54 -5 -95 -11 -41 -6 -82 -11 -90 -11 -12 0 -12 -2 -2 -9 13 -8
-97 -30 -283 -56 -55 -8 -129 -19 -165 -24 -111 -17 -133 -20 -215 -26 -94 -6
-189 -21 -265 -42 -59 -17 -240 -36 -249 -28 -3 3 10 19 27 35 18 16 32 26 32
23 0 -3 8 1 18 10 11 10 27 13 45 10 30 -6 47 -23 23 -23 -9 0 -16 -7 -16 -15
0 -8 9 -15 20 -15 11 0 20 6 20 13 0 12 149 57 189 57 7 0 20 7 28 16 9 8 24
13 34 11 11 -3 22 -1 25 4 3 5 0 9 -5 9 -6 0 -11 5 -11 10 0 6 7 10 15 10 8 0
15 6 15 13 0 9 3 8 9 -2 7 -10 10 -10 16 -1 4 7 1 16 -6 21 -10 6 -4 9 18 9
17 0 35 5 38 10 3 6 22 10 41 10 38 0 74 15 87 36 9 16 33 18 42 4z m-361
-388 c7 -12 -31 -72 -46 -72 -18 0 -116 -49 -99 -50 11 0 11 -3 1 -15 -11 -13
-11 -20 0 -40 7 -14 10 -28 7 -32 -4 -3 -7 -2 -7 4 0 5 -13 8 -30 5 -19 -3
-30 0 -30 8 0 8 -9 10 -25 6 -15 -4 -25 -2 -25 4 0 7 -19 10 -47 9 -84 -3 -86
-2 -53 30 34 32 37 46 13 55 -15 6 -15 8 -3 17 12 7 11 10 -7 15 -13 4 -23 10
-23 15 0 14 22 11 39 -6 15 -12 28 -11 111 10 52 14 111 25 130 26 19 0 44 4
55 9 26 11 33 12 39 2z m771 -1936 c-33 -19 -80 -39 -105 -46 -27 -7 -58 -26
-78 -46 -31 -32 -62 -45 -62 -25 0 14 -73 0 -85 -16 -6 -8 -28 -16 -49 -18
-20 -2 -44 -9 -51 -15 -8 -7 -18 -9 -24 -6 -5 3 -21 2 -35 -4 -14 -5 -28 -5
-31 0 -3 4 8 11 24 15 17 3 48 15 69 25 21 10 52 22 68 25 50 12 118 38 146
57 14 10 38 18 52 18 15 0 34 4 44 9 39 21 91 41 105 41 9 0 19 5 22 10 3 6
16 10 28 10 15 0 4 -11 -38 -34z m-1825 -877 c0 -5 -4 -7 -10 -4 -5 3 -10 1
-10 -4 0 -14 13 -14 28 1 14 14 14 9 3 -49 -7 -34 -5 -40 6 -36 12 5 14 -6 13
-53 -3 -101 -1 -112 24 -137 22 -22 42 -64 38 -79 -1 -4 5 -5 13 -2 11 5 12 0
5 -25 -5 -17 -6 -31 -2 -31 4 0 13 -9 20 -21 10 -16 10 -19 1 -13 -9 5 -10 2
-6 -9 3 -9 2 -19 -3 -22 -6 -4 -10 -15 -10 -26 0 -11 -7 -34 -16 -50 -12 -24
-18 -28 -29 -19 -11 9 -13 3 -10 -36 2 -27 -1 -41 -5 -33 -7 10 -14 10 -35 1
-15 -7 -31 -10 -36 -7 -5 4 -10 1 -10 -4 -4 -30 -30 -91 -40 -91 -12 0 -39
-55 -39 -82 -1 -20 -2 -21 -11 -5 -5 9 -16 17 -24 17 -7 0 -17 14 -20 32 -4
17 -14 38 -21 46 -8 7 -14 24 -14 38 0 13 -4 24 -10 24 -5 0 -10 12 -10 28 0
21 -2 24 -10 12 -7 -11 -9 4 -8 49 2 43 -1 66 -9 68 -7 3 -9 11 -6 19 3 8 2
21 -1 30 -5 14 -9 12 -26 -7 -11 -13 -19 -19 -20 -13 0 19 29 71 58 102 43 47
53 67 39 82 -9 10 -9 14 1 17 6 3 12 13 12 23 0 29 27 45 47 29 16 -12 16 -11
-1 15 -17 27 -17 29 -1 22 13 -5 16 -2 11 9 -3 8 -9 23 -12 33 -5 14 -4 15 5
2 10 -13 12 -13 21 0 5 8 7 25 4 37 -4 15 0 26 15 35 12 7 21 17 21 23 0 6 9
17 20 25 11 8 20 20 20 26 0 11 14 21 33 23 4 1 7 -4 7 -10z m636 -443 c8 -8
14 -22 14 -32 0 -14 2 -15 18 -3 16 13 16 13 0 -6 -17 -21 -32 -152 -18 -160
19 -12 -35 -115 -106 -204 -2 -2 -10 1 -18 8 -12 10 -11 20 5 73 20 63 20 115
0 111 -19 -5 -12 56 9 77 11 11 20 24 20 28 0 4 9 25 20 47 11 22 20 47 20 57
0 22 16 23 36 4z"/>
<path d="M17919 10765 c-3 -2 -63 -7 -133 -9 -162 -5 -172 -12 -167 -128 1
-17 7 -28 15 -28 8 0 17 -7 20 -16 3 -8 10 -13 15 -10 20 13 41 -7 41 -39 0
-18 7 -38 15 -45 16 -13 21 -55 6 -45 -6 3 -15 -3 -20 -14 -15 -27 -14 -33 7
-27 20 6 37 -3 45 -24 4 -10 6 -8 6 8 1 26 20 30 22 5 1 -10 1 -22 0 -27 -1
-5 3 -13 10 -17 7 -4 9 -14 6 -24 -4 -9 -11 -13 -17 -10 -5 3 -10 1 -10 -4 0
-6 -6 -11 -13 -11 -16 0 -36 -39 -30 -57 9 -25 34 -12 50 25 8 20 20 40 26 44
6 4 11 22 12 40 0 23 5 33 15 33 8 0 19 5 23 10 4 6 6 -6 3 -25 -3 -19 -8 -64
-11 -100 -6 -60 -5 -63 9 -45 8 11 16 30 16 43 0 12 5 21 12 20 7 -2 20 13 30
32 10 19 24 35 30 35 15 0 24 -45 11 -54 -14 -11 -33 -50 -32 -68 0 -15 2 -14
11 5 7 13 20 22 34 22 12 0 36 14 53 31 17 17 35 28 40 25 5 -3 12 -30 16 -59
6 -43 9 -48 16 -29 8 22 24 29 31 13 4 -11 49 -25 46 -14 -2 4 2 9 7 11 6 2
14 -15 19 -37 6 -23 16 -41 23 -41 13 0 14 7 17 79 0 19 6 36 12 38 6 2 9 -9
8 -29 l-3 -33 11 28 c7 15 16 27 21 27 4 0 5 -4 2 -10 -3 -5 -2 -10 3 -10 6 0
13 11 16 25 4 14 11 25 16 25 18 0 21 -45 6 -75 -18 -35 -9 -58 10 -24 l13 24
1 -24 c0 -23 1 -24 20 -6 10 9 26 15 34 12 9 -4 18 -2 22 4 3 5 14 7 24 4 13
-4 19 1 24 20 7 27 26 35 26 10 0 -8 5 -15 11 -15 6 0 9 -7 6 -15 -5 -11 -1
-12 19 -4 34 12 51 1 25 -17 -10 -8 -25 -30 -31 -49 -6 -19 -16 -35 -20 -35
-5 0 -7 7 -4 15 11 27 -10 16 -33 -18 -13 -18 -26 -54 -29 -80 -6 -44 -5 -47
12 -40 10 3 21 10 24 14 7 9 181 99 193 99 5 0 24 7 42 16 25 11 32 20 28 35
-7 25 -38 21 -83 -11 -20 -14 -52 -26 -79 -28 l-44 -4 43 41 c43 40 70 52 70
31 0 -16 18 -11 38 10 25 27 18 104 -16 179 -14 31 -24 62 -23 70 1 7 -2 10
-7 7 -5 -3 -12 -17 -14 -30 -4 -18 0 -26 15 -30 10 -2 16 -9 12 -15 -4 -8 -11
-6 -21 4 -9 8 -22 15 -30 15 -8 0 -14 5 -14 10 0 6 6 10 14 10 19 0 27 37 10
50 -7 7 -17 9 -22 6 -10 -6 -42 29 -42 45 0 6 9 8 23 3 l22 -6 -23 20 c-14 13
-24 34 -26 58 -4 48 -27 65 -51 40 -14 -13 -20 -14 -26 -5 -5 8 -8 5 -11 -11
-1 -13 -12 -28 -23 -34 -11 -6 -25 -17 -31 -25 -9 -12 -12 -9 -16 12 -3 15 -2
25 1 23 3 -2 6 7 6 20 0 21 -2 22 -11 9 -9 -12 -17 -13 -38 -5 -15 5 -24 14
-21 20 3 5 -1 10 -9 10 -9 0 -18 11 -22 24 -5 21 -9 24 -30 16 -14 -6 -26 -6
-29 0 -4 6 -15 10 -26 10 -10 0 -19 5 -19 11 0 5 -5 7 -11 3 -6 -3 -14 -1 -18
5 -4 6 -32 13 -62 15 -30 2 -57 5 -61 5 -5 1 -7 4 -5 9 1 4 -2 8 -7 9 -5 1
-13 7 -17 15 -6 10 -9 8 -9 -7 0 -14 -3 -16 -9 -7 -5 9 -17 11 -36 6 -17 -4
-30 -2 -34 5 -4 6 -10 9 -12 6z"/>
<path d="M10458 9143 c-10 -2 -18 -13 -18 -24 0 -13 -7 -19 -22 -20 -13 -1 1
-7 31 -14 30 -8 58 -19 62 -27 9 -15 67 -20 75 -7 3 5 10 9 15 9 6 0 7 -4 4
-10 -3 -5 7 -12 22 -15 15 -3 44 -10 63 -15 35 -9 130 -14 185 -10 l30 2 -29
8 c-16 5 -33 7 -38 4 -5 -3 -13 8 -19 24 -6 17 -18 33 -27 37 -9 3 -63 8 -121
11 -58 3 -113 8 -121 11 -8 4 -21 5 -29 4 -7 -1 -10 2 -7 8 5 8 -25 34 -36 30
-2 -1 -11 -3 -20 -6z"/>
<path d="M17913 8088 c-18 -6 -33 -14 -33 -19 0 -4 -17 -10 -38 -14 -26 -4
-51 -19 -81 -51 -25 -24 -51 -44 -58 -44 -10 0 -12 -6 -8 -19 3 -11 1 -22 -4
-25 -5 -4 -3 -19 7 -39 14 -27 29 -124 34 -219 1 -26 -49 -139 -65 -146 -4 -2
-17 -24 -28 -50 -12 -25 -28 -52 -36 -61 -25 -25 -41 -73 -36 -108 5 -30 69
-112 89 -114 5 0 36 -22 68 -48 42 -32 73 -70 104 -121 24 -41 47 -77 51 -80
3 -3 31 -36 61 -75 30 -38 76 -92 102 -120 27 -27 63 -71 81 -97 27 -39 36
-46 56 -41 15 4 22 2 18 -4 -4 -6 0 -16 7 -22 20 -17 66 -107 59 -115 -4 -3
-1 -6 5 -6 7 0 12 -9 12 -19 0 -11 3 -21 8 -23 4 -1 20 -43 36 -93 16 -49 37
-110 46 -135 10 -25 21 -62 25 -83 4 -21 14 -41 21 -44 8 -3 14 -15 14 -27 0
-22 38 -85 75 -122 86 -88 167 -189 158 -197 -3 -3 -1 -11 3 -19 12 -19 4 -89
-12 -106 -8 -8 -12 -22 -9 -33 4 -10 2 -19 -3 -19 -34 0 86 -142 136 -161 13
-5 20 -13 17 -19 -3 -5 0 -10 7 -10 7 0 23 -15 36 -34 18 -26 23 -48 23 -91 0
-31 -2 -59 -5 -63 -3 -3 -6 4 -6 16 0 13 -6 22 -15 22 -8 0 -15 -7 -15 -15 0
-8 4 -15 9 -15 5 0 11 -12 14 -27 3 -16 11 -41 18 -58 7 -16 11 -41 10 -54 -2
-15 1 -21 8 -17 6 4 11 3 11 -3 0 -5 23 -32 50 -59 57 -57 62 -69 21 -48 -19
10 -38 12 -57 7 -25 -6 -29 -12 -27 -40 1 -27 14 -46 72 -101 39 -37 71 -73
71 -79 0 -7 5 -9 10 -6 6 3 10 -1 10 -9 0 -30 0 -30 68 -106 l43 -49 -21 -21
c-21 -21 -21 -22 -3 -43 10 -12 29 -31 43 -42 13 -11 34 -31 45 -44 11 -13 25
-29 31 -35 6 -6 16 -21 22 -32 11 -22 11 -22 -24 -4 -19 10 -42 24 -50 30 -30
26 -174 100 -193 100 -4 0 -17 9 -28 19 -26 24 -93 53 -93 40 0 -5 -6 -9 -12
-9 -7 0 -26 -7 -41 -15 -20 -10 -35 -12 -54 -4 -23 8 -25 7 -20 -10 3 -11 -1
-25 -9 -32 -8 -6 -14 -7 -14 -2 0 13 -37 10 -51 -4 -6 -6 -12 -47 -14 -92 -3
-79 -4 -82 -40 -116 -54 -50 -88 -53 -162 -16 -60 31 -106 34 -82 5 6 -7 7
-19 3 -25 -4 -8 -3 -9 4 -5 14 9 16 -13 3 -33 -7 -11 -4 -20 10 -32 17 -14 18
-21 9 -38 -11 -22 -40 -29 -40 -10 0 6 -9 8 -20 4 -11 -4 -20 -2 -20 4 0 6 -7
11 -16 11 -8 0 -25 5 -37 12 -28 15 -65 19 -72 8 -6 -10 -45 -1 -45 11 0 4
-16 7 -36 5 -33 -2 -40 3 -97 68 -63 72 -107 130 -107 141 0 4 -11 21 -25 39
-14 18 -25 38 -25 44 0 7 -4 12 -8 12 -5 0 -22 26 -38 58 -16 31 -32 59 -36
60 -5 2 -8 10 -8 18 0 8 -9 25 -20 37 -38 40 -15 96 45 111 37 9 55 24 50 39
-10 31 -12 87 -3 87 6 0 8 9 5 20 -3 13 0 20 9 20 8 0 14 4 14 9 0 5 13 11 28
14 21 4 34 17 50 49 27 54 54 130 47 136 -2 2 0 13 6 24 9 16 13 70 18 214 1
12 12 26 27 32 14 7 23 16 20 21 -4 5 -2 11 3 13 12 4 22 126 11 133 -14 9 -4
55 17 78 24 25 24 49 0 93 -9 18 -21 52 -27 77 -5 25 -23 66 -40 90 -16 25
-30 51 -30 58 0 8 -15 29 -32 48 -36 38 -78 98 -78 110 0 4 -13 20 -29 35 -25
24 -31 26 -55 15 -29 -14 -41 -43 -34 -89 3 -17 2 -30 -1 -30 -9 0 -61 50 -61
58 0 8 -53 42 -64 42 -9 0 0 -101 12 -130 8 -21 6 -30 -9 -49 -10 -13 -19 -35
-20 -50 0 -14 -3 -20 -6 -13 -8 21 -32 14 -26 -9 4 -12 0 -25 -8 -30 -10 -6
-15 -2 -19 13 -3 11 -16 25 -29 29 -18 7 -24 5 -28 -11 -6 -23 -8 -23 -32 -10
-21 11 -35 -12 -45 -68 -3 -18 -16 -43 -29 -55 -15 -14 -26 -38 -30 -66 -7
-56 -22 -72 -42 -45 -13 16 -16 17 -25 4 -6 -8 -9 -36 -7 -62 3 -41 2 -45 -9
-30 -20 28 -29 5 -27 -71 2 -75 -11 -128 -31 -124 -7 1 -11 -22 -11 -75 1 -42
-2 -75 -7 -72 -4 3 -16 -4 -28 -16 -17 -17 -20 -32 -19 -92 1 -40 7 -96 14
-124 15 -59 13 -110 -5 -127 -10 -10 -11 -9 -5 3 7 12 6 13 -7 3 -8 -7 -17
-10 -20 -7 -3 2 -11 -48 -18 -112 -14 -132 -9 -238 14 -283 20 -37 21 -71 2
-71 -9 0 -12 -8 -8 -25 2 -14 -1 -38 -8 -54 -10 -26 -15 -29 -35 -21 -18 7
-28 4 -46 -16 -12 -13 -28 -24 -36 -24 -7 0 -13 -4 -13 -10 0 -5 -7 -7 -15 -4
-9 4 -15 0 -15 -9 0 -8 -5 -17 -11 -19 -6 -2 -11 -16 -11 -31 0 -15 -5 -27
-10 -27 -5 0 -7 -3 -4 -8 2 -4 -8 -23 -24 -42 -26 -32 -29 -34 -47 -19 -10 9
-28 20 -40 23 -13 4 -23 14 -23 22 0 8 -4 14 -10 14 -5 0 -10 7 -10 15 0 9 -7
18 -15 21 -8 4 -15 11 -15 16 0 6 -6 24 -14 41 -8 18 -22 55 -31 84 -9 28 -23
57 -31 63 -7 7 -14 17 -14 23 0 6 -10 21 -21 33 -12 13 -22 37 -23 54 -1 18
-9 37 -18 44 -10 7 -19 34 -23 69 -7 54 -25 85 -43 73 -5 -3 -22 8 -37 24 -15
16 -32 27 -37 24 -4 -3 -8 15 -8 40 0 33 -6 53 -22 72 -13 14 -25 42 -28 61
-3 20 -10 38 -16 40 -5 2 -23 -23 -38 -54 -25 -53 -27 -65 -22 -138 6 -88 23
-161 55 -245 12 -30 33 -97 47 -149 13 -51 28 -101 33 -110 5 -9 8 -35 7 -58
-1 -24 2 -43 5 -43 10 0 18 -39 10 -45 -5 -2 -7 -24 -6 -49 0 -25 -2 -43 -6
-40 -4 2 -12 -3 -17 -12 -10 -19 -88 -25 -100 -9 -14 20 -59 44 -68 35 -5 -5
-19 0 -33 11 -13 10 -19 19 -15 19 5 0 3 4 -5 9 -8 5 -24 7 -36 5 -16 -3 -24
2 -28 16 -3 11 -13 23 -23 27 -11 4 -46 29 -78 55 -33 26 -65 48 -72 48 -7 0
-16 15 -20 33 -3 17 -19 47 -35 66 -15 18 -25 40 -22 47 4 10 0 12 -12 8 -11
-5 -15 -2 -13 7 3 16 -58 105 -78 113 -8 3 -19 -5 -26 -17 -49 -92 -130 -157
-175 -140 -22 8 -42 33 -43 53 0 14 -60 58 -69 51 -2 -2 -16 9 -32 24 -16 14
-29 22 -29 16 0 -6 -7 -11 -15 -11 -8 0 -15 -5 -15 -11 0 -6 -5 -9 -11 -7 -14
5 -20 79 -7 95 13 16 0 55 -26 73 -32 23 -55 20 -62 -6 -8 -31 -30 -48 -89
-67 -33 -10 -53 -13 -60 -6 -6 6 -5 13 5 19 11 7 12 12 4 20 -9 9 -14 9 -18 1
-10 -16 -48 -13 -74 5 -12 8 -27 12 -32 9 -6 -3 -10 3 -10 15 0 18 -17 58 -30
70 -3 3 -16 20 -29 38 -25 35 -48 41 -58 15 -4 -10 -12 -22 -19 -28 -6 -5 -15
-31 -19 -58 -8 -57 -47 -101 -82 -92 -13 3 -23 1 -23 -4 0 -5 -11 -12 -25 -15
-14 -4 -25 -10 -25 -15 0 -4 -11 -24 -24 -44 -13 -19 -27 -46 -31 -58 -4 -13
-15 -32 -24 -41 -42 -46 -49 -55 -64 -83 -22 -40 -53 -75 -66 -75 -20 0 -51
34 -51 57 0 16 -6 23 -20 23 -15 0 -20 7 -20 28 0 17 -9 37 -21 48 -20 18 -22
18 -34 1 -15 -21 -45 -22 -71 -2 -24 18 -54 19 -55 3 -1 -7 0 -25 1 -40 2 -32
-11 -48 -60 -70 -35 -15 -110 -14 -110 2 0 4 -12 11 -26 14 -14 4 -42 24 -62
44 -21 21 -45 41 -55 45 -9 3 -17 11 -17 16 0 6 -6 8 -14 5 -14 -5 -46 50 -46
80 0 9 -5 16 -11 16 -7 0 -9 9 -6 21 3 12 0 31 -7 43 -8 11 -16 42 -19 68 -4
47 -4 47 23 44 15 -2 32 -6 39 -10 6 -4 17 -4 24 1 6 4 23 8 37 8 24 0 25 3
26 60 2 75 -2 82 -28 53 -16 -17 -20 -19 -15 -5 4 11 1 20 -8 23 -8 4 -15 12
-15 20 0 8 -4 14 -10 14 -5 0 -10 5 -10 11 0 5 5 7 12 3 8 -5 9 3 5 31 -7 44
-15 55 -26 36 -7 -10 -11 -8 -16 9 -5 16 -3 26 8 32 16 8 33 61 28 88 -1 13 0
13 8 1 15 -23 44 -5 39 24 -3 13 -1 22 3 19 5 -3 9 8 9 24 0 18 -6 32 -16 36
-8 3 -13 10 -10 14 3 5 -8 16 -23 25 -27 16 -29 16 -52 -11 -14 -15 -36 -43
-49 -62 -51 -73 -86 -103 -74 -62 5 14 4 14 -4 2 -6 -8 -13 -35 -16 -60 -4
-25 -10 -74 -16 -110 -12 -85 -13 -201 -2 -271 5 -33 4 -67 -1 -84 -7 -19 -6
-39 2 -61 13 -37 6 -80 -15 -88 -11 -4 -13 0 -9 17 4 13 -1 30 -10 42 -16 19
-16 19 -9 -5 3 -14 7 -27 7 -30 4 -21 -17 -80 -28 -80 -12 0 -27 27 -31 55 0
6 -9 27 -18 48 -9 20 -18 54 -20 75 -6 64 -18 102 -32 102 -8 0 -14 8 -14 17
0 9 -3 13 -7 10 -3 -4 -12 -2 -20 4 -10 9 -13 8 -14 -2 -3 -56 -19 -120 -34
-145 -7 -11 -18 -39 -24 -61 -7 -24 -17 -40 -26 -40 -8 0 -15 6 -15 13 0 7 -4
14 -10 16 -5 2 -11 12 -13 23 -4 21 -16 48 -47 105 -11 19 -19 42 -20 51 0 9
-9 24 -20 34 -11 10 -20 24 -20 32 0 7 -4 13 -10 13 -5 0 -10 9 -10 20 0 11 5
20 10 20 6 0 10 4 10 9 0 5 -9 7 -20 4 -11 -3 -20 -10 -20 -15 0 -5 -13 1 -30
14 -19 15 -32 36 -36 59 -10 58 -18 65 -48 43 -14 -11 -26 -23 -26 -28 0 -12
-47 -82 -77 -114 -12 -13 -24 -40 -28 -61 -9 -52 -74 -126 -104 -116 -14 4
-21 2 -21 -6 0 -7 -3 -9 -7 -5 -4 3 -7 40 -7 81 -1 74 -2 76 -38 111 -21 19
-43 32 -49 28 -14 -8 -2 55 15 75 6 8 12 57 12 115 1 56 5 126 9 156 7 51 6
56 -13 57 -15 1 -30 -13 -52 -46 -42 -67 -63 -89 -92 -100 -31 -12 -39 -5 -32
24 3 13 1 26 -5 30 -12 7 9 35 26 35 5 0 17 17 28 37 11 21 32 51 48 67 30 32
34 51 13 72 -20 20 -49 17 -63 -6 -15 -23 -53 -46 -53 -30 0 5 8 10 18 10 16
1 16 1 -1 11 -9 6 -15 14 -12 20 4 5 -6 9 -20 9 -19 0 -25 5 -23 18 2 12 -5
18 -24 20 -16 2 -28 -1 -28 -7 0 -6 -7 -11 -15 -11 -32 0 -39 -136 -7 -146 51
-17 64 -28 60 -56 -3 -18 2 -34 14 -45 22 -19 24 -41 3 -23 -9 7 -18 10 -22 6
-4 -3 2 -13 13 -20 15 -12 17 -17 7 -27 -11 -11 -13 -10 -13 4 0 23 -16 21
-33 -3 -11 -16 -12 -33 -5 -78 5 -31 12 -64 15 -72 7 -18 4 -93 -4 -100 -3 -3
-8 1 -10 8 -3 6 -11 12 -19 12 -8 0 -11 6 -8 15 4 9 0 15 -8 15 -18 0 -38 41
-38 78 0 15 -7 40 -15 56 -8 15 -15 39 -15 52 0 14 -7 27 -15 30 -8 3 -19 21
-25 40 -10 30 -14 33 -32 23 -11 -6 -22 -8 -26 -5 -3 3 -1 6 4 6 6 0 8 29 6
68 -3 53 0 79 15 111 11 23 22 39 25 35 4 -3 11 4 18 15 6 12 15 19 21 16 5
-4 9 -2 9 4 0 5 3 16 6 24 3 9 -1 17 -11 19 -15 3 -15 6 4 29 11 14 19 34 19
45 -2 21 25 109 48 161 8 17 14 41 14 53 0 23 35 59 58 60 7 0 11 4 7 9 -3 5
-1 12 4 15 5 3 16 37 26 76 14 59 15 71 3 83 -11 12 -16 12 -27 0 -7 -8 -10
-21 -7 -29 3 -8 2 -13 -3 -10 -27 17 -67 -67 -70 -146 -2 -38 -5 -47 -17 -52
-14 -5 -54 -86 -54 -109 0 -32 -40 -96 -62 -99 -28 -4 -39 -48 -13 -48 10 0
14 -5 11 -12 -3 -7 -9 -21 -12 -31 -4 -9 -14 -16 -22 -15 -11 2 -20 -8 -27
-28 -5 -17 -15 -37 -21 -45 -30 -36 -65 -111 -59 -128 3 -11 0 -21 -9 -24 -18
-7 -39 -81 -33 -114 3 -17 0 -23 -8 -19 -8 3 -11 -2 -8 -14 3 -10 -2 -33 -10
-52 -8 -18 -19 -46 -25 -63 -11 -33 -10 -184 2 -203 4 -7 2 -10 -7 -7 -28 11
-107 -49 -107 -82 0 -10 -7 -31 -16 -48 -8 -16 -19 -48 -24 -70 -4 -22 -22
-92 -38 -155 -17 -63 -45 -194 -63 -290 -18 -96 -36 -179 -41 -185 -6 -6 -7 0
-5 15 3 14 11 66 17 115 6 50 18 117 26 150 8 33 21 98 30 145 19 102 22 114
24 118 2 1 4 14 6 30 6 55 22 119 57 223 25 74 36 125 36 165 0 70 16 161 32
181 6 7 18 13 25 13 17 0 35 34 68 132 23 66 25 80 14 98 -9 14 -10 23 -3 28
19 13 37 67 41 122 5 77 9 93 22 98 23 7 70 62 76 88 4 15 15 39 25 53 27 41
78 230 63 240 -4 3 -9 16 -9 27 -1 16 3 21 16 17 20 -5 75 42 66 56 -2 5 4 20
15 34 11 14 20 29 20 33 0 13 43 98 57 112 7 7 13 24 13 37 0 22 -2 21 -41
-15 -49 -45 -74 -44 -63 4 6 27 5 29 -10 17 -19 -16 -26 -4 -25 49 0 19 -2 63
-4 98 -2 37 2 85 11 115 21 77 25 104 15 110 -15 10 -86 -43 -123 -92 -35 -46
-35 -46 -35 -151 0 -58 3 -121 8 -140 5 -24 4 -31 -3 -24 -6 6 -16 57 -23 113
-13 113 -20 117 -65 40 -12 -19 -33 -47 -46 -62 -14 -15 -31 -39 -38 -54 -7
-16 -20 -28 -27 -28 -8 0 -19 -16 -24 -35 -5 -19 -14 -38 -20 -42 -7 -4 0 -12
16 -19 32 -14 33 -32 10 -106 -10 -32 -24 -55 -35 -59 -10 -3 -18 -13 -18 -23
0 -23 -25 -45 -41 -36 -6 4 -15 1 -20 -6 -6 -11 -9 -10 -15 4 -3 10 3 43 15
73 11 31 21 63 21 73 0 9 12 34 26 55 24 34 49 143 37 156 -7 8 -54 -50 -48
-60 11 -17 -19 -106 -51 -156 -38 -58 -114 -217 -121 -253 -4 -22 -1 -23 27
-17 28 5 31 4 25 -14 -4 -12 -2 -20 5 -20 11 0 25 29 34 73 7 28 26 38 26 12
0 -8 -4 -15 -10 -15 -5 0 -10 -9 -10 -20 0 -11 5 -20 10 -20 6 0 10 -5 10 -11
0 -5 -4 -7 -10 -4 -6 4 -10 -12 -10 -41 0 -33 -7 -58 -22 -81 -29 -42 -38 -42
-38 2 0 28 -4 35 -20 35 -24 0 -46 -32 -54 -80 -17 -91 -28 -119 -50 -122 -12
-2 -27 -17 -37 -36 -13 -29 -17 -31 -28 -19 -12 15 -11 50 5 211 5 45 3 57 -6
51 -8 -5 -11 -3 -7 6 11 27 34 111 59 217 10 45 10 55 -4 68 -14 14 -18 12
-49 -19 -45 -46 -53 -58 -57 -86 -4 -27 -28 -55 -55 -64 -11 -4 -21 -16 -24
-27 -3 -11 -9 -20 -14 -20 -5 0 -9 -14 -9 -31 0 -16 -4 -28 -9 -25 -5 3 -12
-5 -15 -19 -4 -14 -11 -25 -16 -25 -6 0 -15 -11 -20 -25 -5 -14 -15 -25 -21
-25 -6 0 -8 7 -5 16 4 9 1 22 -5 30 -7 9 -7 19 1 34 6 11 -18 -10 -55 -47 -44
-45 -69 -81 -77 -108 -6 -22 -15 -44 -20 -50 -4 -5 -8 -18 -8 -30 -1 -19 -1
-19 -14 -2 -12 15 -15 15 -26 3 -6 -9 -9 -19 -6 -24 6 -10 -11 -85 -29 -127
-7 -16 -13 -68 -14 -114 -1 -46 -4 -87 -6 -92 -3 -4 -1 -26 4 -48 11 -52 1
-98 -45 -196 -27 -58 -33 -79 -24 -85 8 -5 10 -17 6 -31 -9 -36 -22 -52 -35
-45 -16 10 -14 53 4 80 14 21 14 27 -1 62 -11 27 -14 52 -9 84 3 25 8 57 10
72 2 15 -1 30 -6 34 -6 3 -9 20 -8 38 2 17 0 37 -4 43 -4 6 -3 14 3 18 16 10
12 43 -9 64 -13 13 -18 28 -15 43 5 23 5 23 -11 3 -51 -64 -71 -90 -80 -105
-16 -26 -67 -97 -100 -139 -17 -21 -44 -65 -60 -99 -16 -33 -36 -62 -44 -65
-9 -2 -62 -87 -118 -188 -248 -446 -412 -846 -463 -1123 -28 -154 -26 -202 9
-248 15 -21 31 -35 35 -31 3 3 6 -5 6 -18 0 -13 4 -19 8 -14 11 15 42 15 42
-1 0 -18 5 -18 35 2 21 14 28 14 41 3 13 -10 17 -10 25 2 7 11 9 9 9 -7 0 -26
26 -49 63 -58 16 -4 25 -11 21 -17 -4 -7 3 -9 17 -7 21 3 24 9 27 49 3 41 6
46 23 42 10 -3 19 0 19 6 0 6 5 11 11 11 6 0 9 -7 6 -15 -4 -8 -2 -17 3 -20 6
-4 10 -15 10 -26 0 -10 5 -19 10 -19 6 0 10 8 10 18 0 15 6 18 29 14 16 -2 38
1 48 7 11 5 46 13 79 16 32 4 70 14 84 23 14 9 30 17 35 17 6 0 16 5 24 10 10
5 16 4 19 -4 3 -9 7 -9 17 -1 9 8 15 8 20 0 3 -5 17 -10 30 -10 12 0 25 -7 29
-15 3 -8 12 -12 19 -9 8 3 17 -1 20 -9 10 -27 120 -42 142 -20 13 13 15 13 15
-1 0 -12 10 -15 45 -14 39 2 44 5 39 21 -4 13 0 20 15 24 12 3 21 9 21 13 0 5
9 6 19 3 13 -3 21 2 25 15 8 23 57 36 69 19 5 -9 12 -6 22 7 12 16 28 19 87
20 61 1 82 -4 128 -27 47 -23 56 -25 68 -13 8 8 15 26 15 40 0 15 3 29 8 32 5
3 9 26 9 52 0 77 23 304 30 295 3 -4 4 -67 1 -138 -6 -130 6 -250 24 -249 33
1 66 18 61 30 -8 21 40 67 64 61 11 -3 18 -1 15 3 -7 12 16 25 24 14 3 -5 34
-9 68 -10 35 -1 69 -6 76 -12 22 -18 107 -12 128 9 19 19 19 18 19 -3 0 -17 3
-19 12 -10 7 7 24 12 38 12 14 0 43 9 64 21 34 18 45 19 80 10 23 -6 57 -13
76 -16 19 -2 35 -4 35 -5 0 -1 15 -3 33 -6 17 -2 32 0 32 4 0 4 9 13 21 20 17
11 20 11 13 0 -6 -10 -4 -10 7 -2 12 9 25 12 74 16 6 1 42 -2 80 -7 67 -7 258
-10 300 -5 11 1 61 -1 110 -6 112 -10 249 -10 295 0 19 4 43 8 52 10 10 1 21
5 24 9 4 4 18 7 30 7 13 0 26 5 29 10 5 8 11 7 21 -1 11 -9 14 -9 14 1 0 8 3
10 7 7 3 -4 12 -2 20 4 7 6 37 12 67 13 30 0 49 4 42 8 -15 10 1 9 52 -2 31
-7 49 -7 65 1 21 12 47 15 195 20 39 1 72 6 72 10 0 4 24 7 53 6 28 0 120 2
202 6 137 7 217 8 270 5 33 -2 234 12 322 23 45 5 94 9 110 9 79 -3 525 10
532 14 5 3 65 6 135 7 69 0 126 4 126 9 0 5 15 9 33 9 17 0 89 8 158 19 78 11
135 15 149 10 12 -5 28 -5 34 0 6 5 61 9 121 11 61 1 123 4 139 7 17 4 31 1
36 -6 5 -8 13 -9 26 -3 11 6 62 11 114 12 52 2 127 5 165 8 39 2 79 4 90 4 11
0 22 5 26 11 4 5 31 12 60 14 30 1 95 5 144 8 103 7 122 9 131 19 4 4 20 7 35
7 15 0 29 5 31 11 2 5 10 11 18 13 8 1 26 8 40 15 33 19 100 24 100 8 0 -8 4
-7 10 3 6 10 13 11 18 5 8 -12 72 -13 89 -2 7 4 21 4 30 0 31 -14 184 -7 323
16 255 41 239 36 288 87 l45 45 49 -12 c27 -6 90 -11 141 -11 126 0 127 0 124
15 -1 6 4 11 12 9 7 -1 19 2 27 9 8 6 22 9 33 6 13 -3 22 3 30 19 8 18 8 24
-1 24 -9 0 -9 3 -1 11 18 18 85 12 163 -14 94 -32 144 -39 167 -22 9 7 23 11
30 8 7 -3 13 -1 13 3 0 5 19 9 43 9 23 -1 45 3 48 8 3 4 52 13 109 18 57 5
107 12 113 16 5 3 28 7 51 8 22 1 52 7 66 13 14 5 50 15 80 21 73 15 124 46
115 69 -4 9 -9 27 -10 40 -3 17 1 22 13 18 67 -20 73 -19 69 5 -2 13 -9 37
-15 52 -16 38 -16 37 19 37 18 0 48 -10 68 -22 20 -13 38 -23 41 -24 3 0 16
-6 30 -12 82 -37 168 -68 178 -64 14 4 17 92 3 92 -5 0 -11 11 -13 25 -3 15
-1 22 5 18 6 -4 8 0 4 9 -4 12 5 17 44 22 43 6 52 12 74 45 28 41 29 85 6 129
-13 25 -19 45 -27 102 -3 19 -10 44 -14 55 -20 46 -29 98 -20 116 16 30 11 55
-15 75 -24 18 -34 44 -17 44 5 0 17 7 28 16 10 8 13 13 7 9 -7 -3 -13 -1 -13
4 0 6 4 11 9 11 15 0 24 72 10 81 -10 6 -10 11 0 23 11 13 11 16 -3 16 -12 0
-16 10 -16 43 0 23 -7 68 -14 101 -14 59 -13 68 21 161 2 6 12 24 23 40 11 17
23 38 26 48 4 9 11 17 16 17 5 0 7 4 4 9 -4 5 0 33 8 63 7 29 10 55 5 56 -19
8 -7 33 31 63 41 33 42 35 21 109 -10 35 -10 52 0 85 7 22 13 44 13 50 1 5 7
14 13 20 7 5 14 25 15 43 1 19 6 36 10 38 12 8 -23 54 -41 54 -10 0 -21 16
-31 48 -10 31 -20 47 -31 46 -9 -1 -21 7 -27 17 -10 16 -7 23 23 50 19 18 35
37 35 44 0 6 9 21 21 33 11 12 17 27 14 32 -3 6 -2 10 4 10 5 0 12 18 16 40 4
22 11 40 16 40 5 0 9 7 9 15 0 9 7 18 16 22 12 4 13 8 3 14 -10 6 -10 13 -1
34 7 14 12 35 12 46 0 11 9 29 20 41 11 12 20 27 20 34 0 7 13 38 29 69 16 31
27 63 25 70 -3 7 5 30 17 51 34 58 67 127 71 144 2 8 5 17 8 20 15 15 50 93
66 148 10 34 24 62 30 62 11 0 64 106 64 129 0 6 7 23 16 36 20 30 19 131 -1
195 -10 31 -67 53 -100 38 -14 -6 -25 -15 -25 -20 0 -5 -4 -7 -9 -4 -11 7 -59
-48 -73 -83 -5 -14 -11 -45 -12 -69 -1 -24 -9 -48 -17 -54 -11 -7 -11 -11 -1
-15 15 -6 16 -40 1 -45 -6 -2 -12 -28 -13 -57 -2 -29 -7 -56 -12 -60 -14 -10
-44 -68 -44 -85 0 -8 -8 -20 -17 -25 -10 -6 -15 -11 -11 -11 4 0 -2 -17 -14
-37 -12 -21 -26 -48 -33 -60 -7 -13 -15 -20 -18 -17 -3 3 -18 -6 -34 -20 -15
-14 -38 -26 -50 -26 -13 0 -23 -4 -23 -8 0 -5 -18 -15 -40 -22 -28 -9 -42 -21
-49 -41 -5 -16 -14 -29 -19 -29 -5 0 -13 -23 -16 -52 -5 -32 -16 -62 -31 -79
-15 -18 -21 -36 -18 -49 4 -14 1 -19 -8 -15 -20 7 -54 -53 -54 -95 -1 -20 -3
-40 -6 -45 -3 -6 -6 -58 -7 -117 -1 -76 3 -115 13 -135 8 -15 15 -34 15 -41 0
-8 10 -22 21 -31 15 -12 23 -31 25 -62 7 -83 10 -104 17 -116 8 -12 2 -17 -15
-14 -5 0 -7 -17 -6 -39 1 -23 -5 -47 -14 -57 -8 -10 -13 -24 -11 -30 3 -7 -2
-13 -11 -13 -9 0 -16 -7 -16 -16 0 -8 -7 -22 -15 -30 -13 -13 -10 -19 20 -46
19 -16 35 -37 35 -47 0 -14 2 -14 10 -1 8 13 10 12 10 -2 0 -20 30 -25 30 -5
1 7 6 5 14 -5 7 -10 18 -18 25 -18 20 0 12 -15 -16 -27 -36 -17 -48 -16 -33 2
10 12 10 15 -3 15 -9 0 -19 -5 -22 -10 -4 -6 -11 -7 -17 -4 -6 4 -6 -2 1 -15
10 -17 9 -21 -4 -21 -8 0 -15 7 -15 15 0 16 -43 31 -59 20 -6 -3 -11 0 -11 7
0 17 -35 39 -53 32 -37 -14 -137 68 -137 113 0 27 -31 98 -68 157 -21 35 -25
52 -26 128 -1 48 -5 88 -10 88 -5 0 -6 14 -2 30 3 19 2 29 -4 25 -6 -4 -7 3
-1 18 6 14 7 28 4 31 -4 3 -7 16 -9 29 -1 12 -3 23 -4 25 -2 1 -3 5 -4 10 -1
4 -6 23 -10 42 -5 19 -13 43 -19 55 -23 46 -27 55 -27 70 0 8 -6 12 -14 9 -9
-4 -15 7 -20 35 -3 23 -11 41 -16 41 -6 0 -10 9 -10 21 0 11 -4 18 -9 14 -10
-6 -81 32 -93 50 -4 5 -8 6 -8 1 0 -5 -7 -3 -15 4 -12 10 -13 16 -4 27 10 11
8 12 -6 7 -14 -6 -16 -3 -12 12 4 10 0 28 -8 38 -12 16 -17 17 -30 6 -13 -11
-15 -8 -15 19 0 17 -4 31 -10 31 -5 0 -10 7 -10 16 0 9 -16 31 -34 49 -19 18
-32 35 -29 39 4 3 1 6 -5 6 -7 0 -12 -6 -13 -12 0 -7 -5 -2 -10 12 -8 20 -12
22 -19 10 -8 -12 -10 -12 -10 4 0 15 -5 17 -35 12 -19 -4 -35 -3 -36 1 -1 4
-2 33 -3 63 -2 39 -6 54 -16 52 -8 -2 -10 3 -6 13 6 16 -27 54 -46 55 -13 0
-48 34 -48 46 0 7 -7 15 -16 18 -9 4 -14 9 -11 12 3 4 -3 15 -13 26 -13 14
-17 29 -14 48 4 17 0 32 -10 43 -9 9 -16 20 -15 24 4 24 -3 53 -15 65 -8 8
-15 23 -17 34 -2 10 -14 23 -27 29 -12 5 -22 14 -22 18 0 18 -72 95 -100 107
-25 10 -32 10 -46 -5 -12 -11 -20 -13 -27 -6 -6 6 -22 11 -35 11 -18 0 -22 -4
-18 -18 10 -31 -41 -20 -74 16 -34 37 -75 43 -83 12 -4 -14 0 -20 11 -21 10
-1 6 -4 -8 -8 -24 -7 -24 -7 8 -14 29 -6 38 -27 11 -27 -6 0 -7 5 -3 11 5 8
-1 10 -19 5 -18 -4 -29 -1 -35 10 -8 13 -10 14 -21 0 -10 -11 -10 -20 -1 -37
10 -18 8 -26 -9 -50 -12 -15 -21 -32 -21 -36 0 -4 -14 -16 -30 -25 -17 -9 -30
-23 -30 -31 0 -24 21 -77 31 -77 5 0 9 -6 9 -14 0 -8 5 -27 12 -43 6 -15 12
-41 14 -58 1 -16 6 -45 9 -62 5 -21 3 -33 -3 -33 -6 0 -16 -16 -22 -35 -6 -19
-16 -35 -22 -35 -6 0 -8 -7 -4 -15 3 -8 1 -15 -4 -15 -16 0 -16 -35 0 -65 21
-38 16 -55 -18 -56 -24 -2 -25 -2 -4 -6 12 -2 20 -9 16 -14 -3 -5 -10 -6 -16
-3 -6 4 -14 0 -19 -7 -6 -10 -9 -11 -9 -1 0 6 -4 12 -9 12 -6 0 -8 -17 -5 -37
2 -21 2 -32 -2 -25 -9 19 -27 14 -21 -7 3 -14 1 -18 -9 -14 -8 3 -14 9 -14 15
0 5 -3 7 -7 5 -11 -7 -28 15 -28 33 0 8 -6 14 -12 13 -7 -2 -13 5 -13 15 0 10
-5 23 -11 29 -7 7 -5 15 7 28 17 17 17 18 -1 31 -10 7 -21 11 -25 9 -5 -3 -11
2 -14 10 -5 15 -53 40 -68 37 -5 -1 -8 3 -8 10 0 6 -3 9 -6 5 -8 -8 -98 89
-120 129 -11 19 -24 32 -31 29 -8 -2 -13 3 -13 15 0 10 -6 23 -13 27 -7 4 -20
19 -28 33 -9 14 -35 43 -57 65 -51 50 -88 120 -104 195 -16 80 -1 122 62 175
56 46 99 119 98 165 -1 17 4 35 9 38 6 4 11 23 12 42 1 50 5 74 13 80 3 3 12
69 19 147 11 119 11 146 -1 168 -14 27 -27 29 -77 13z m-6327 -2992 c-3 -14
-1 -26 5 -28 23 -8 22 -92 -1 -146 -24 -56 -40 -69 -32 -25 5 27 5 27 -18 12
-13 -8 -25 -26 -27 -39 -2 -14 -8 -29 -13 -34 -6 -6 -10 -29 -10 -51 0 -23 -6
-55 -14 -71 -22 -43 -31 -89 -17 -80 6 4 11 2 11 -3 0 -6 5 -10 12 -9 19 4 8
-96 -13 -116 -8 -8 -10 -5 -7 9 2 16 -3 21 -30 23 -25 3 -32 7 -28 20 11 39
20 88 18 98 -1 7 5 14 13 18 9 3 13 10 10 16 -3 5 -2 10 4 10 6 0 10 21 9 47
0 27 4 49 11 51 6 2 8 8 5 14 -4 6 -2 13 3 17 9 6 53 173 53 203 0 20 41 87
54 88 4 0 5 -11 2 -24z"/>
<path d="M11650 6754 c-19 -13 -40 -22 -47 -19 -7 2 -24 -7 -37 -20 -23 -23
-24 -25 -6 -25 11 0 20 5 20 12 0 7 7 5 18 -6 16 -17 16 -19 -8 -34 -36 -24
-87 -81 -93 -103 -7 -26 5 -24 34 5 60 58 150 126 169 126 12 0 18 5 15 10 -3
6 -2 10 4 10 13 0 2 29 -18 51 -15 16 -19 15 -51 -7z"/>
<path d="M3779 6735 c-1 -5 -1 -18 0 -27 2 -12 -5 -18 -18 -18 -14 0 -21 -6
-21 -20 0 -11 -4 -20 -8 -20 -5 0 -9 -6 -10 -12 0 -7 -4 -36 -7 -63 -6 -45 -4
-56 24 -103 17 -29 31 -55 31 -57 0 -13 162 -185 174 -185 10 0 55 -47 50 -52
-8 -8 145 -157 262 -256 109 -92 314 -220 365 -228 22 -4 39 -10 39 -15 0 -5
17 -9 38 -8 32 1 34 2 12 8 l-25 7 30 8 30 9 -32 9 c-18 5 -33 14 -33 22 0 15
-42 56 -58 56 -7 0 -12 7 -12 15 0 8 -6 15 -14 15 -8 0 -20 13 -27 29 -8 17
-23 35 -35 42 -12 6 -27 22 -34 35 -7 13 -27 34 -43 46 -42 31 -85 77 -92 97
-4 9 -40 40 -81 70 -83 61 -166 138 -236 221 -26 30 -74 87 -107 126 -34 40
-61 77 -61 83 0 6 -6 10 -12 9 -7 -2 -12 2 -11 9 2 7 -7 17 -18 24 -21 11 -21
20 -3 82 4 11 0 17 -11 17 -10 0 -13 5 -9 12 5 7 3 8 -6 3 -7 -4 -16 -2 -21 6
-5 8 -9 10 -10 4z"/>
<path d="M12250 6669 c-14 -18 -44 -54 -67 -80 -54 -62 -143 -194 -143 -211 0
-8 -8 -25 -17 -38 -34 -48 -52 -93 -45 -107 7 -11 12 -11 29 4 24 21 55 78 47
86 -3 3 3 12 15 19 12 7 21 18 21 24 0 6 11 23 25 38 14 15 25 34 25 43 0 9
15 39 32 67 32 50 40 61 85 114 13 15 23 30 23 34 0 3 3 13 6 22 10 26 -10 18
-36 -15z"/>
<path d="M3333 6029 c-9 -9 -10 -16 -2 -26 9 -10 8 -13 -3 -13 -12 0 -15 -11
-13 -42 2 -24 -1 -48 -5 -53 -5 -6 -11 -24 -14 -39 -3 -16 -10 -34 -15 -39 -6
-6 -7 -17 -2 -26 5 -9 12 -35 16 -58 4 -24 11 -43 16 -43 6 0 7 -4 4 -10 -3
-5 0 -10 8 -10 8 0 18 -7 21 -16 11 -28 40 0 42 40 0 23 9 44 23 57 12 11 19
25 15 31 -4 6 0 14 7 19 10 6 8 9 -8 9 -13 0 -23 5 -23 10 0 6 5 10 11 10 5 0
7 5 4 10 -3 6 1 10 11 10 14 0 15 2 3 17 -12 15 -12 16 4 10 11 -4 17 -2 17 7
0 8 -9 16 -19 19 -12 3 -18 12 -17 23 5 28 -31 74 -51 67 -9 -4 -14 -2 -11 3
3 5 3 17 -1 27 -5 14 -9 15 -18 6z"/>
<path d="M11625 5977 c-17 -12 -37 -31 -45 -42 -8 -11 -48 -56 -89 -100 -57
-61 -84 -101 -116 -169 -34 -73 -40 -94 -31 -108 10 -16 21 -7 105 79 54 56
103 116 114 142 10 24 39 73 63 109 45 67 49 78 36 99 -5 8 -16 5 -37 -10z"/>
<path d="M4140 5846 c0 -17 14 -36 47 -63 26 -21 62 -53 80 -70 61 -60 238
-163 280 -163 28 0 29 15 4 37 -11 9 -18 20 -15 25 3 4 -2 8 -12 8 -16 0 -57
29 -115 83 -17 15 -33 27 -35 27 -3 0 -21 16 -42 36 -46 45 -143 104 -171 104
-16 0 -21 -6 -21 -24z"/>
<path d="M3564 5592 c-15 -10 -9 -118 9 -162 8 -19 15 -57 16 -84 1 -27 5 -54
10 -60 4 -6 11 -26 15 -44 3 -19 15 -45 25 -58 11 -14 17 -32 14 -40 -3 -7 2
-17 11 -20 9 -3 16 -14 16 -25 0 -10 21 -39 46 -64 39 -38 49 -43 62 -33 13
11 14 9 7 -12 l-7 -25 24 28 c23 26 51 40 30 14 -8 -9 0 -12 34 -14 49 -2 55
10 29 60 -8 15 -17 43 -21 62 -3 19 -12 39 -20 46 -8 6 -14 17 -14 24 0 7 -11
35 -24 62 -13 26 -37 75 -52 108 -16 33 -43 79 -61 103 -18 24 -33 50 -33 57
0 9 -6 12 -17 8 -10 -4 -14 -2 -10 4 3 5 -10 24 -29 41 -38 34 -43 36 -60 24z"/>
<path d="M3043 5499 c-6 -6 -9 -18 -6 -25 3 -8 -1 -14 -9 -14 -9 0 -14 -12
-14 -37 0 -20 -5 -38 -10 -40 -6 -2 -8 -18 -6 -35 3 -20 1 -29 -6 -24 -16 10
-27 -15 -11 -26 10 -7 8 -8 -7 -3 -14 4 -24 0 -28 -10 -3 -8 0 -15 6 -15 7 0
4 -6 -7 -13 -13 -10 -16 -21 -11 -40 3 -15 2 -27 -3 -27 -5 0 -9 -17 -9 -37 1
-52 -7 -112 -21 -146 -6 -16 -11 -39 -11 -51 0 -13 -7 -29 -15 -36 -19 -16
-17 -107 3 -115 12 -4 12 -8 1 -22 -10 -12 -10 -14 -1 -9 19 11 14 -8 -8 -32
-12 -12 -16 -22 -10 -22 7 0 8 -5 3 -12 -19 -31 -30 -77 -19 -82 8 -3 8 -7 0
-13 -7 -4 -15 -34 -19 -65 -4 -32 -12 -58 -17 -58 -5 0 -6 -5 -3 -10 4 -6 1
-18 -7 -27 -14 -16 -40 -135 -28 -128 4 2 8 -33 9 -78 3 -109 4 -117 24 -155
14 -25 15 -37 7 -52 -6 -11 -15 -18 -21 -15 -16 11 -10 -4 11 -25 12 -12 18
-25 15 -29 -2 -5 4 -11 15 -14 12 -3 20 -14 20 -25 0 -14 6 -19 18 -17 9 1 16
8 14 15 -2 7 3 10 11 7 8 -3 20 0 27 6 10 10 12 8 6 -7 -5 -16 -4 -17 8 -7 11
10 20 9 38 -1 13 -7 25 -16 28 -19 11 -13 70 -27 89 -22 12 3 21 1 21 -6 0
-13 42 -10 52 3 3 6 20 -4 36 -22 16 -17 27 -34 23 -37 -3 -3 2 -3 12 1 12 4
17 1 17 -10 0 -9 7 -16 16 -16 9 0 12 -5 8 -12 -5 -7 -3 -8 5 -4 12 8 71 -11
71 -23 0 -8 47 -28 88 -36 17 -4 32 -11 32 -17 0 -6 7 -7 15 -4 9 3 18 -1 22
-10 3 -8 12 -13 19 -10 8 3 14 1 14 -4 0 -5 13 -8 29 -8 27 1 28 3 18 22 -17
30 -34 46 -48 46 -7 0 -9 3 -6 7 11 11 -14 32 -30 26 -11 -4 -14 -2 -9 5 4 7
-8 15 -34 22 -29 8 -40 16 -40 30 0 22 -12 25 -41 10 -15 -8 -19 -7 -19 4 0
10 -6 13 -17 9 -10 -4 -14 -2 -10 4 3 5 23 10 43 11 20 1 43 7 50 13 11 9 14
7 15 -12 1 -20 2 -21 6 -5 3 12 -2 25 -11 32 -10 7 -18 28 -19 51 -1 21 -10
45 -19 54 -22 20 -23 29 -3 29 10 0 13 9 10 31 -3 23 0 29 11 25 8 -3 14 1 14
9 0 8 -4 15 -10 15 -5 0 -10 12 -10 26 0 16 4 23 11 18 7 -4 7 2 -1 17 -13 24
-14 22 37 56 17 12 17 13 -2 10 -15 -1 -19 3 -18 21 2 14 -3 22 -13 22 -12 0
-12 3 -3 13 15 15 49 20 49 7 0 -5 7 -7 15 -4 8 3 28 -4 45 -16 16 -12 30 -17
30 -11 0 6 -5 11 -11 11 -6 0 -9 9 -6 20 3 11 1 20 -5 20 -5 0 -8 6 -6 12 3 7
11 13 19 13 19 0 22 10 14 45 -5 21 -13 30 -26 30 -10 0 -19 -4 -19 -10 0 -5
-4 -10 -9 -10 -5 0 -8 19 -6 43 1 23 -2 48 -7 55 -6 6 -9 12 -7 13 31 6 38 6
33 -2 -3 -5 7 -9 23 -9 21 0 24 -3 13 -10 -12 -7 -10 -11 10 -18 13 -5 34 -8
45 -7 11 1 31 3 44 4 23 1 23 2 7 14 -13 10 -15 18 -7 37 5 14 10 20 10 13 1
-13 41 -5 41 9 0 5 6 6 13 2 8 -5 7 -2 -2 10 -8 9 -14 33 -13 53 1 20 -5 50
-13 66 -8 17 -15 38 -15 48 0 10 -9 21 -20 24 -11 3 -20 12 -20 18 0 16 -36
47 -45 39 -3 -4 -3 1 0 10 5 13 -2 18 -32 24 -21 5 -44 7 -51 5 -9 -1 -12 4
-8 16 4 13 -3 23 -23 34 -22 13 -28 22 -24 41 3 14 -1 31 -9 39 -7 8 -18 25
-24 39 -39 84 -48 106 -46 111 0 4 -11 20 -27 36 -15 16 -30 37 -34 47 -4 11
-10 16 -14 12 -3 -3 -14 12 -24 33 -9 22 -26 48 -36 58 -10 10 -25 34 -33 53
-17 43 -40 71 -52 64 -13 -8 -50 37 -44 53 3 8 -2 13 -14 13 -10 0 -22 5 -25
10 -8 13 -18 13 -32 -1z"/>
<path d="M11147 5376 c-9 -10 -17 -22 -17 -27 0 -5 -7 -9 -16 -9 -10 0 -14 6
-10 15 3 8 1 15 -4 15 -6 0 -10 -8 -10 -18 0 -10 -8 -36 -19 -57 -17 -35 -19
-37 -25 -17 -4 12 -4 26 -1 32 3 5 2 10 -4 10 -5 0 -13 -9 -16 -20 -3 -11 -9
-20 -13 -20 -27 0 -112 -108 -112 -141 0 -16 -33 -47 -45 -43 -12 5 -86 -72
-148 -154 -25 -34 -43 -49 -53 -45 -9 3 -14 0 -12 -8 2 -8 -11 -18 -29 -23
-18 -6 -33 -14 -33 -18 0 -4 -6 -8 -12 -8 -7 0 -29 -18 -48 -41 -19 -22 -46
-50 -59 -62 -34 -30 -131 -130 -139 -142 -4 -5 -20 -17 -37 -26 -17 -9 -43
-40 -58 -68 -16 -28 -35 -51 -43 -51 -8 0 -14 -4 -14 -10 0 -5 -15 -16 -32
-24 -18 -7 -108 -87 -199 -177 -219 -216 -308 -299 -344 -325 -16 -11 -50 -39
-75 -62 -24 -23 -48 -42 -52 -42 -4 0 -8 -5 -8 -11 0 -14 -26 -39 -40 -39 -6
0 -23 -12 -38 -26 -77 -72 -104 -101 -113 -116 -5 -10 -17 -18 -25 -18 -14 0
-52 -33 -180 -156 -56 -55 -99 -123 -86 -136 6 -6 8 -17 5 -24 -3 -8 0 -20 6
-28 6 -7 9 -20 5 -29 -3 -8 -1 -18 5 -22 6 -3 14 1 17 10 6 13 9 14 16 3 6
-10 14 -7 33 15 24 27 26 27 49 11 14 -8 30 -13 35 -10 5 4 12 2 16 -4 3 -5
16 -10 28 -10 35 -1 97 -65 89 -92 -4 -13 16 -9 21 5 4 9 8 8 16 -3 10 -13 11
-13 12 0 1 8 1 21 0 28 -1 6 3 12 8 12 5 0 10 12 10 28 0 30 28 155 30 133 1
-7 7 -11 16 -7 9 3 15 0 15 -9 0 -8 7 -15 15 -15 8 0 16 -8 16 -17 5 -78 4
-130 -3 -140 -5 -6 -11 -22 -14 -36 -3 -20 1 -26 22 -31 14 -4 32 -2 39 4 7 6
19 9 26 8 7 -2 18 8 26 22 l13 25 0 -32 c0 -18 5 -33 10 -33 6 0 10 7 10 15 0
8 4 15 10 15 8 0 26 -66 22 -82 -4 -14 46 -8 62 7 16 16 21 30 30 85 9 49 35
76 71 76 17 -1 30 -6 30 -13 0 -7 5 -12 10 -10 6 1 9 5 7 10 -1 4 5 7 13 7 8
0 15 -7 15 -16 0 -12 7 -14 29 -9 19 4 33 1 44 -9 8 -8 17 -12 21 -9 3 4 6 1
6 -5 0 -7 7 -12 16 -12 8 0 12 -4 9 -10 -3 -5 -1 -10 4 -10 6 0 11 -7 11 -15
0 -8 4 -15 9 -15 5 0 12 -10 16 -22 23 -67 22 -65 28 -38 3 14 10 50 15 80 29
152 108 448 154 575 93 254 305 692 426 880 25 39 60 94 78 122 19 29 34 56
34 60 0 5 11 20 25 35 14 15 25 30 25 33 0 4 18 32 40 64 22 31 40 65 40 74 0
10 22 39 48 65 66 65 90 98 102 143 6 23 17 39 25 39 22 0 87 93 72 102 -8 5
-6 8 6 8 10 0 15 5 12 10 -3 6 -3 10 2 10 11 0 36 57 31 71 -3 8 -10 6 -21 -5z"/>
<path d="M13817 5300 c-21 -32 -40 -69 -42 -82 -3 -13 -16 -48 -31 -78 -31
-64 -42 -120 -24 -120 7 0 10 7 6 17 -4 10 -4 14 0 11 9 -10 47 40 39 52 -3 6
2 13 12 17 55 21 125 202 90 232 -9 7 -23 -7 -50 -49z"/>
<path d="M5452 5223 c-6 -2 -10 -9 -6 -14 3 -5 -7 -9 -21 -9 -16 0 -24 -4 -19
-11 5 -8 1 -8 -14 0 -11 6 -44 11 -73 11 -45 0 -50 -2 -39 -15 7 -8 9 -16 4
-16 -5 -1 -24 -3 -43 -5 -42 -5 -47 -9 -32 -28 21 -25 -188 -12 -331 20 -22 5
-28 3 -28 -9 0 -21 30 -37 66 -36 16 1 58 -4 94 -9 36 -6 111 -13 167 -15 56
-3 107 -8 113 -12 6 -4 14 -5 16 -2 3 3 21 -1 39 -9 39 -16 115 -19 115 -5 0
5 10 11 23 13 17 2 22 10 22 33 0 22 -4 30 -17 29 -10 -1 -18 3 -18 8 0 6 11
7 24 4 30 -7 39 4 30 39 -5 20 -12 25 -38 25 -24 0 -27 3 -16 10 16 10 4 12
-18 3z"/>
<path d="M4140 4020 c5 -10 7 -20 4 -22 -3 -3 10 -18 28 -33 25 -21 32 -34 30
-55 -3 -22 4 -32 32 -50 37 -22 116 -33 151 -19 18 6 19 7 3 14 -10 4 -15 11
-12 16 3 5 -2 9 -12 9 -19 0 -43 28 -44 50 0 8 -14 26 -31 40 -17 14 -37 30
-43 36 -12 11 -61 26 -98 29 -13 1 -15 -2 -8 -15z"/>
<path d="M3020 3723 c-29 -5 -51 -23 -29 -23 8 -1 3 -7 -11 -15 -14 -8 -19
-14 -11 -15 8 0 12 -3 8 -6 -12 -13 17 -65 44 -80 16 -8 27 -19 24 -24 -4 -6
3 -10 14 -10 12 0 21 -7 21 -15 0 -8 -4 -15 -10 -15 -5 0 -10 5 -10 10 0 6 -4
10 -8 10 -5 0 -9 -7 -9 -15 0 -8 4 -15 8 -15 5 0 6 -8 3 -17 -5 -15 -4 -15 4
-4 9 12 13 12 26 2 9 -8 16 -10 16 -5 0 5 5 1 11 -8 11 -20 39 -24 39 -6 0 9
3 9 12 0 17 -17 23 -15 36 12 10 22 9 23 -11 18 -22 -5 -22 -5 -4 16 18 20 18
20 -5 25 l-23 4 23 8 c12 4 22 11 22 16 0 5 -7 6 -15 3 -8 -4 -15 -1 -15 5 0
6 7 11 15 11 10 0 7 7 -9 25 -13 14 -28 25 -35 25 -6 0 -11 5 -11 10 0 18 -51
60 -72 60 -11 0 -16 5 -13 10 3 6 5 9 3 9 -2 -1 -14 -4 -28 -6z"/>
</g>
</svg>
