<?xml version="1.0" encoding="UTF-8"?>
<svg width="39px" height="27px" viewBox="0 0 39 27" version="1.1" xmlns="http://www.w3.org/2000/svg" xmlns:xlink="http://www.w3.org/1999/xlink">
    <!-- Generator: Sketch 43.2 (39069) - http://www.bohemiancoding.com/sketch -->
    <title>chico-logo</title>
    <desc>Created with Sketch.</desc>
    <defs></defs>
    <g id="Page-1" stroke="none" stroke-width="1" fill="none" fill-rule="evenodd">
        <g id="Chico-Homepage" transform="translate(-701.000000, -49.000000)" fill="#273344">
            <path d="M707.182966,61.1965086 L707.317567,60.3889006 C707.557634,59.2425744 707.988529,58.156904 708.598665,57.1615358 C708.684196,57.0221638 708.697656,56.8500785 708.635126,56.6991206 L706.444873,51.4029846 C707.33682,51.340625 708.720828,51.3188161 710.08831,51.5951748 C710.455993,51.6687796 712.25931,52.1993473 713.867881,52.6905569 C713.981525,52.7420121 714.112719,52.7512127 714.236756,52.7111731 C714.833091,52.5176198 715.442546,52.3790997 716.053874,52.2985093 C716.505044,52.2341051 716.962178,52.2015623 717.412836,52.2015623 L723.358978,52.2015623 C724.462708,52.2015623 725.552298,52.3772255 726.597417,52.7236109 C726.733552,52.7689324 726.882636,52.7546204 727.008207,52.6844232 C727.01417,52.681186 727.019793,52.6777783 727.025415,52.6743707 C727.785487,52.4424816 728.607066,52.1966212 729.24327,52.0107351 C729.249063,52.0092016 729.254686,52.0073275 729.260479,52.0054533 C729.669224,51.8703408 730.104548,51.7480069 730.563897,51.6398147 C730.642783,51.6197097 730.707187,51.604205 730.75745,51.5939821 C732.078928,51.3137047 733.447773,51.3309132 734.404975,51.4019623 L732.225627,56.8672871 C732.167356,57.0138151 732.179794,57.1789147 732.259703,57.3150494 C732.841726,58.3083731 733.249789,59.3788796 733.469752,60.4809066 L733.604012,61.2871515 C733.658023,61.7400253 733.684262,62.1457034 733.684262,62.5266763 C733.684262,62.6726932 733.684262,62.7877006 733.670291,62.912931 C733.66978,62.9170201 733.669439,62.9212797 733.669098,62.9253688 L733.601968,63.6994116 C733.535689,64.2243568 733.438231,64.7397606 733.311638,65.2319925 L733.079749,65.977752 C732.577294,67.3997553 731.736462,68.7265154 730.647895,69.8152527 C728.689871,71.7734463 726.101096,72.8517903 723.358978,72.8517903 L717.412836,72.8517903 C713.096564,72.8517903 709.201815,70.1246653 707.725971,66.0794697 L707.474829,65.3262134 C707.316034,64.7416348 707.213975,64.2265717 707.154001,63.7075899 L707.104761,62.9519483 C707.104249,62.8715283 707.099819,62.7946863 707.09539,62.7180146 C707.091641,62.6554847 707.087722,62.5929547 707.087722,62.5266763 C707.087722,62.0707356 707.120265,61.6202471 707.182966,61.1965086 M739.407374,67.3051936 L735.706008,65.6618648 C735.828853,65.1791742 735.919837,64.7164183 735.980833,64.2643964 L737.125967,64.2643964 C737.63234,64.2643964 738.028988,63.8677485 738.028988,63.3615453 C738.028988,62.8551717 737.63234,62.4585237 737.125967,62.4585237 L736.103508,62.4585237 C736.100782,61.9376677 736.066535,61.4248197 736.00179,60.9279874 L739.394084,59.4236899 C739.614728,59.3420772 739.796866,59.1759553 739.89688,58.9641712 C740.000642,58.7443792 740.010183,58.4963038 739.924141,58.2644147 C739.844573,58.036274 739.675384,57.8474914 739.458488,57.7450921 C739.235289,57.6397964 738.983465,57.6316181 738.748509,57.7219203 C738.740671,57.7249871 738.733004,57.728054 738.725337,57.7314616 L735.616387,59.105247 C735.395062,58.3082027 735.096042,57.5339896 734.723759,56.7943638 L736.901915,51.4711371 C737.098706,50.9790756 737.061222,50.4174984 736.80156,49.9690545 C736.538662,49.514988 736.079825,49.2127314 735.538693,49.1387859 C734.875399,49.0532544 732.534528,48.8106313 730.254654,49.282247 C728.954815,49.5608206 727.773731,49.9756994 726.964078,50.2972091 C725.7634,49.9441788 724.545684,49.765108 723.34211,49.765108 L717.412836,49.765108 C716.197335,49.765108 714.991376,49.9383859 713.825115,50.2803414 C712.679641,49.8240599 711.583066,49.4882382 710.564866,49.2815655 C708.288571,48.8106313 705.94753,49.0534248 705.280657,49.139297 C704.743104,49.2127314 704.284096,49.5151584 704.021538,49.9690545 C703.745691,50.445441 703.711615,50.9829944 703.922547,51.4750559 L706.06373,56.7054247 C705.69281,57.4206859 705.385953,58.1913211 705.14793,59.0050627 L702.252468,57.7149346 C702.237304,57.7082898 702.221799,57.702156 702.205954,57.6968742 C701.742687,57.5430198 701.250796,57.7691159 701.061502,58.2236935 C701.056561,58.2352795 701.052301,58.2468654 701.048383,58.2587921 C700.894017,58.7218888 701.120454,59.2139504 701.564979,59.3989846 L704.75486,60.8099131 C704.676314,61.4018182 704.637638,61.9291487 704.6344,62.4414856 L703.867514,62.4414856 C703.36114,62.4414856 702.964492,62.8381335 702.964492,63.3445071 C702.964492,63.8508807 703.36114,64.2475286 703.867514,64.2475286 L704.762698,64.2475286 C704.83511,64.754243 704.935805,65.2570385 705.063762,65.7501224 L701.615071,67.2997414 C701.395109,67.3815245 701.213312,67.547476 701.113639,67.7585785 C701.010899,67.976326 701.000335,68.2215049 701.083652,68.4513494 C701.2036,68.8215882 701.546067,69.0693228 701.942204,69.0693228 C702.012912,69.0693228 702.109859,69.0693228 702.239349,69.0263867 C702.255024,69.0211049 702.270358,69.0151415 702.285522,69.0084966 L705.684972,67.5024953 C707.665997,72.1811691 712.318602,75.2882446 717.429875,75.2882446 L723.376186,75.2882446 C726.764902,75.2882446 729.960917,73.9582473 732.375903,71.5434314 C733.55375,70.365755 734.507545,68.9427294 735.155846,67.4019702 L738.75788,69.0079855 C738.773214,69.0148008 738.78906,69.0207641 738.804905,69.0262163 C738.934395,69.0693228 739.031512,69.0693228 739.102391,69.0693228 C739.505173,69.0693228 739.852581,68.8134099 739.966906,68.4322667 C739.969121,68.4247699 739.971166,68.4171027 739.97304,68.4094356 C740.08447,67.9630363 739.841676,67.4897167 739.407374,67.3051936" id="chico-logo"></path>
        </g>
    </g>
</svg>